<svg width="71" height="23" viewBox="0 0 71 23" fill="none" xmlns="http://www.w3.org/2000/svg">
<path d="M2.21591 17.4545H-3.42727e-06L6.40909 -1.71661e-05H8.59091L15 17.4545H12.7841L7.56818 2.76135H7.43181L2.21591 17.4545ZM3.03409 10.6363H11.9659V12.5113H3.03409V10.6363ZM17.446 22.3636V4.36362H19.3892V6.44316H19.6278C19.7756 6.21589 19.9801 5.92612 20.2415 5.57385C20.5085 5.21589 20.8892 4.89771 21.3835 4.6193C21.8835 4.33521 22.5597 4.19317 23.4119 4.19317C24.5142 4.19317 25.4858 4.46873 26.3267 5.01987C27.1676 5.57101 27.8239 6.35226 28.2955 7.36362C28.767 8.37498 29.0028 9.56816 29.0028 10.9432C29.0028 12.3295 28.767 13.5312 28.2955 14.5483C27.8239 15.5596 27.1705 16.3437 26.3352 16.9006C25.5 17.4517 24.5369 17.7273 23.446 17.7273C22.6051 17.7273 21.9318 17.5881 21.4261 17.3096C20.9205 17.0256 20.5312 16.7045 20.2585 16.3466C19.9858 15.9829 19.7756 15.6818 19.6278 15.4432H19.4574V22.3636H17.446ZM19.4233 10.9091C19.4233 11.8977 19.5682 12.7699 19.858 13.5256C20.1477 14.2756 20.571 14.8636 21.1278 15.2898C21.6847 15.7102 22.3665 15.9204 23.1733 15.9204C24.0142 15.9204 24.7159 15.6988 25.2784 15.2557C25.8466 14.8068 26.2727 14.2045 26.5568 13.4488C26.8466 12.6875 26.9915 11.8409 26.9915 10.9091C26.9915 9.98862 26.8494 9.15907 26.5653 8.42044C26.2869 7.67612 25.8636 7.08805 25.2955 6.65623C24.733 6.21873 24.0256 5.99998 23.1733 5.99998C22.3551 5.99998 21.6676 6.20737 21.1108 6.62214C20.554 7.03123 20.1335 7.6051 19.8494 8.34373C19.5653 9.07669 19.4233 9.9318 19.4233 10.9091ZM37.5597 17.7273C36.2983 17.7273 35.2102 17.4488 34.2955 16.892C33.3864 16.3295 32.6847 15.5454 32.1903 14.5398C31.7017 13.5284 31.4574 12.3523 31.4574 11.0113C31.4574 9.67044 31.7017 8.48862 32.1903 7.46589C32.6847 6.43748 33.3722 5.63635 34.2528 5.06248C35.1392 4.48294 36.1733 4.19317 37.3551 4.19317C38.0369 4.19317 38.7102 4.3068 39.375 4.53407C40.0398 4.76135 40.6449 5.13066 41.1903 5.64203C41.7358 6.14771 42.1705 6.81816 42.4943 7.65339C42.8182 8.48862 42.9801 9.51703 42.9801 10.7386V11.5909H32.8892V9.85226H40.9347C40.9347 9.11362 40.7869 8.45453 40.4915 7.87498C40.2017 7.29544 39.7869 6.83805 39.2472 6.50282C38.7131 6.1676 38.0824 5.99998 37.3551 5.99998C36.554 5.99998 35.8608 6.19885 35.2756 6.59657C34.696 6.98862 34.25 7.49998 33.9375 8.13066C33.625 8.76135 33.4687 9.43748 33.4687 10.1591V11.3182C33.4687 12.3068 33.6392 13.1449 33.9801 13.8324C34.3267 14.5142 34.8068 15.0341 35.4205 15.392C36.0341 15.7443 36.7472 15.9204 37.5597 15.9204C38.0881 15.9204 38.5653 15.8466 38.9915 15.6988C39.4233 15.5454 39.7955 15.3182 40.108 15.017C40.4205 14.7102 40.6619 14.3295 40.8324 13.875L42.7756 14.4204C42.571 15.0795 42.2273 15.6591 41.7443 16.1591C41.2614 16.6534 40.6648 17.0398 39.9545 17.3182C39.2443 17.5909 38.446 17.7273 37.5597 17.7273ZM47.1882 4.36362L50.3246 9.71589L53.4609 4.36362H55.7791L51.5518 10.9091L55.7791 17.4545H53.4609L50.3246 12.375L47.1882 17.4545H44.87L49.0291 10.9091L44.87 4.36362H47.1882Z" fill="white"/>
<path d="M66.7457 6.27271L63.9673 -1.71661e-05H65.0923L67.0355 4.60226L68.9787 -1.71661e-05H70.1037L67.3253 6.27271H66.7457ZM63.7628 6.27271V-1.71661e-05H64.8537V6.27271H63.7628ZM69.2173 6.27271V-1.71661e-05H70.3082V6.27271H69.2173ZM59.6719 6.27271V0.545437H60.7628V6.27271H59.6719ZM57.7628 0.954529V-1.71661e-05H62.6719V0.954529H57.7628Z" fill="#8F8F8F"/>
</svg>
