<svg width="200" height="142" viewBox="0 0 200 142" fill="none" xmlns="http://www.w3.org/2000/svg">
<mask id="mask0_2311_3199" style="mask-type:alpha" maskUnits="userSpaceOnUse" x="0" y="0" width="200" height="142">
<g clip-path="url(#clip0_2311_3199)">
<g clip-path="url(#clip1_2311_3199)">
<path d="M135.509 98.179C145.806 94.0035 151.902 84.3481 150.634 75.2856C156.037 82.6712 167.137 85.3537 177.434 81.1782C189.276 76.3765 195.568 64.3296 191.489 54.2699C187.941 45.5209 177.718 41.1607 167.325 43.33C176.293 37.6483 180.593 27.3991 177.045 18.6501C172.966 8.59039 160.06 4.32814 148.219 9.12981C137.922 13.3053 131.825 22.9611 133.092 32.0239C127.689 24.638 116.59 21.9551 106.293 26.1307C95.9952 30.3065 89.8985 39.9623 91.1661 49.0247C85.7639 41.6389 74.664 38.9563 64.3668 43.1319C54.0688 47.3077 47.9721 56.9635 49.2397 66.0259C43.8375 58.64 32.7376 55.9575 22.4404 60.133C10.5991 64.9347 4.30696 76.9816 8.38619 87.0413C11.9339 95.7903 22.1573 100.151 32.5501 97.9812C23.5816 103.663 19.2823 113.912 22.83 122.661C26.9093 132.721 39.8147 136.983 51.6561 132.181C61.9532 128.006 68.05 118.35 66.7824 109.288C72.1846 116.674 83.2845 119.356 93.5825 115.18C103.88 111.005 109.976 101.349 108.709 92.2865C114.11 99.6727 125.211 102.355 135.509 98.179Z" fill="#37B669"/>
</g>
</g>
</mask>
<g mask="url(#mask0_2311_3199)">
<rect y="69.061" width="183.78" height="78.63" transform="rotate(-22.0726 0 69.061)" fill="#FCCEF0"/>
</g>
<path d="M54.7801 96.2105L47.4588 86.6227L48.7857 86.0846L54.6006 93.9535L54.7059 93.9108L53.4403 84.1972L54.9146 83.5993L60.7717 91.4511L60.877 91.4084L59.5692 81.7119L60.8961 81.1738L62.3202 93.153L60.9722 93.6996L55.1078 86.0716L55.0235 86.1057L56.1281 95.6639L54.7801 96.2105ZM66.8958 91.2976L62.5231 80.5141L69.0311 77.8751L69.5008 79.0335L64.2986 81.143L65.7761 84.7866L70.6413 82.8138L71.1111 83.9722L66.2458 85.945L67.7319 89.6097L73.0183 87.4661L73.4881 88.6244L66.8958 91.2976ZM75.7574 87.7042L71.3847 76.9207L75.1547 75.3919C75.9059 75.0873 76.5782 74.966 77.1714 75.0279C77.7633 75.0863 78.2668 75.2847 78.682 75.6232C79.0957 75.9582 79.4094 76.3889 79.6229 76.9155C79.8108 77.3788 79.8835 77.7949 79.8409 78.1637C79.8018 78.531 79.6845 78.8565 79.4889 79.1402C79.2968 79.4225 79.0634 79.6684 78.7886 79.8779L78.8313 79.9832C79.1698 79.8705 79.5485 79.8518 79.9674 79.9272C80.3863 80.0026 80.7878 80.1913 81.1718 80.4934C81.5559 80.7954 81.8633 81.2308 82.0939 81.7994C82.3131 82.34 82.3873 82.876 82.3167 83.4074C82.2461 83.9388 81.997 84.4383 81.5694 84.906C81.1418 85.3737 80.5033 85.7798 79.6538 86.1242L75.7574 87.7042ZM76.5935 86.0163L79.1841 84.9658C80.0371 84.6199 80.5757 84.2094 80.8 83.7343C81.0263 83.2542 81.0434 82.7772 80.8512 82.3033C80.7032 81.9382 80.4735 81.639 80.1622 81.4055C79.8495 81.1685 79.4834 81.0268 79.0639 80.9802C78.6431 80.9302 78.1975 81.0005 77.7271 81.1913L75.0733 82.2674L76.5935 86.0163ZM74.6121 81.13L77.0342 80.1479C77.4274 79.9885 77.7506 79.7675 78.0039 79.4849C78.2607 79.2009 78.4252 78.8808 78.4973 78.5245C78.573 78.1669 78.534 77.7985 78.3803 77.4193C78.1881 76.9455 77.8601 76.6104 77.3964 76.4143C76.9312 76.2146 76.3406 76.26 75.6245 76.5503L73.1603 77.5496L74.6121 81.13ZM88.0187 73.3148C87.7392 72.8068 87.3149 72.4965 86.7461 72.3839C86.1772 72.2712 85.5663 72.3472 84.9134 72.612C84.436 72.8056 84.0496 73.0522 83.7542 73.3518C83.4623 73.65 83.2711 73.9749 83.1806 74.3263C83.0936 74.6763 83.1199 75.0233 83.2594 75.3673C83.3761 75.6551 83.5449 75.8749 83.7658 76.0264C83.9887 76.1731 84.2368 76.2708 84.5099 76.3194C84.7817 76.3645 85.0547 76.3826 85.329 76.3736C85.6018 76.361 85.849 76.3405 86.0704 76.312L87.2852 76.1628C87.5959 76.1226 87.9496 76.0977 88.3462 76.0881C88.7464 76.0771 89.15 76.1198 89.557 76.2164C89.9662 76.308 90.3447 76.4856 90.6927 76.7491C91.0408 77.0126 91.3173 77.3972 91.5222 77.9026C91.7585 78.4853 91.8193 79.0738 91.7047 79.668C91.5935 80.2608 91.3028 80.814 90.8326 81.3276C90.3658 81.8398 89.7183 82.2638 88.8898 82.5997C88.1176 82.9129 87.3983 83.0594 86.7321 83.0394C86.0694 83.0179 85.4862 82.8497 84.9825 82.5349C84.4823 82.2186 84.0916 81.7741 83.8103 81.2015L85.1582 80.6549C85.3585 81.0479 85.632 81.3293 85.9789 81.4993C86.3279 81.6644 86.713 81.7371 87.1342 81.7175C87.5575 81.693 87.9833 81.5939 88.4116 81.4203C88.91 81.2182 89.3248 80.9559 89.656 80.6336C89.9858 80.3078 90.2074 79.9522 90.321 79.5669C90.4331 79.1781 90.4094 78.7871 90.25 78.394C90.1048 78.036 89.8866 77.7852 89.5954 77.6416C89.3043 77.4981 88.967 77.4223 88.5836 77.4143C88.2002 77.4063 87.7976 77.4265 87.3758 77.4749L85.8952 77.6338C84.9545 77.7332 84.1473 77.6579 83.4737 77.4079C82.8001 77.1579 82.3159 76.6695 82.0213 75.9429C81.7765 75.3391 81.7262 74.7464 81.8704 74.1647C82.0168 73.5781 82.3167 73.0477 82.7703 72.5736C83.2259 72.0945 83.7978 71.7155 84.4858 71.4365C85.1808 71.1547 85.8491 71.0288 86.4908 71.0588C87.131 71.0853 87.6959 71.2486 88.1855 71.5488C88.6786 71.8475 89.0442 72.2654 89.2824 72.8023L88.0187 73.3148ZM91.7894 68.6466L96.1621 79.4301L94.8563 79.9596L90.4836 69.1761L91.7894 68.6466ZM94.2876 68.9824L93.8179 67.824L101.906 64.5445L102.375 65.7029L98.9844 67.0779L102.887 76.703L101.582 77.2325L97.6785 67.6074L94.2876 68.9824ZM108.294 74.5108L103.921 63.7273L110.429 61.0882L110.899 62.2466L105.696 64.3561L107.174 67.9998L112.039 66.0269L112.509 67.1853L107.644 69.1582L109.13 72.8229L114.416 70.6792L114.886 71.8376L108.294 74.5108ZM124.653 67.877L121.325 69.2264L116.953 58.4428L120.428 57.0337C121.474 56.6095 122.457 56.4624 123.376 56.5924C124.294 56.7189 125.114 57.1036 125.837 57.7466C126.558 58.3861 127.145 59.264 127.597 60.3803C128.053 61.5035 128.245 62.5518 128.173 63.5249C128.101 64.4945 127.77 65.3521 127.181 66.0977C126.591 66.8398 125.748 67.4329 124.653 67.877ZM122.162 67.5385L124.099 66.7527C124.991 66.3912 125.66 65.9196 126.107 65.3378C126.553 64.7561 126.792 64.0892 126.822 63.3372C126.852 62.5851 126.689 61.7703 126.334 60.8927C125.981 60.0221 125.535 59.3304 124.995 58.8173C124.455 58.3008 123.834 57.9886 123.132 57.8808C122.429 57.7694 121.656 57.8846 120.813 58.2262L118.728 59.0717L122.162 67.5385ZM131.983 64.9049L127.61 54.1214L134.118 51.4823L134.588 52.6407L129.385 54.7502L130.863 58.3939L135.728 56.421L136.198 57.5794L131.333 59.5523L132.819 63.217L138.105 61.0733L138.575 62.2317L131.983 64.9049ZM136.914 50.3486L143.796 58.128L143.922 58.0767L143.443 47.7011L144.812 47.1459L145.225 59.535L143.877 60.0816L135.545 50.9037L136.914 50.3486Z" fill="#161614"/>
<path d="M49.547 92.6796L147.595 52.921L148.005 53.932L49.957 93.6906L49.547 92.6796Z" fill="#161614"/>
<defs>
<clipPath id="clip0_2311_3199">
<rect width="183.78" height="78.63" fill="white" transform="translate(0 69.061) rotate(-22.0726)"/>
</clipPath>
<clipPath id="clip1_2311_3199">
<rect width="183.764" height="78.63" fill="white" transform="translate(0.00717163 69.0581) rotate(-22.0726)"/>
</clipPath>
</defs>
</svg>
