<svg width="229" height="124" viewBox="0 0 229 124" fill="none" xmlns="http://www.w3.org/2000/svg">
<mask id="mask0_2311_3301" style="mask-type:alpha" maskUnits="userSpaceOnUse" x="0" y="0" width="229" height="139">
<g clip-path="url(#clip0_2311_3301)">
<g clip-path="url(#clip1_2311_3301)">
<path d="M17.9269 90.8326C8.15378 88.4448 2.11237 78.8088 4.43317 69.3098L16.9265 18.1749C19.2473 8.67599 29.0514 2.91141 38.8245 5.29918C48.5976 7.68696 54.639 17.3229 52.3182 26.8219L39.8249 77.9568C37.5041 87.4558 27.7 93.2203 17.9269 90.8326Z" fill="#37B669"/>
<path d="M52.3243 99.2366C42.5512 96.8488 36.5098 87.2129 38.8306 77.7139L51.324 26.579C53.6448 17.08 63.4489 11.3155 73.222 13.7032C82.9951 16.091 89.0365 25.727 86.7157 35.2259L74.2223 86.3608C71.9015 95.8598 62.0974 101.624 52.3243 99.2366Z" fill="#37B669"/>
<path d="M86.7229 107.641C76.9498 105.253 70.9084 95.6172 73.2292 86.1182L85.7225 34.9833C88.0433 25.4843 97.8474 19.7198 107.621 22.1075C117.394 24.4953 123.435 34.1313 121.114 43.6302L108.621 94.7651C106.299 104.264 96.495 110.028 86.7229 107.641Z" fill="#37B669"/>
<path d="M121.12 116.045C111.347 113.657 105.306 104.021 107.627 94.5222L120.12 43.3874C122.441 33.8884 132.245 28.1238 142.018 30.5116C151.791 32.8994 157.832 42.5353 155.512 52.0343L143.018 103.169C140.698 112.668 130.893 118.433 121.12 116.045Z" fill="#37B669"/>
<path d="M155.518 124.449C145.745 122.061 139.703 112.425 142.024 102.926L154.517 51.7914C156.838 42.2924 166.642 36.5279 176.415 38.9156C186.189 41.3034 192.23 50.9394 189.909 60.4384L177.416 111.573C175.095 121.072 165.291 126.837 155.518 124.449Z" fill="#37B669"/>
<path d="M189.916 132.853C180.143 130.466 174.102 120.83 176.423 111.331L188.916 60.1957C191.237 50.6967 201.041 44.9322 210.814 47.3199C220.587 49.7077 226.629 59.3437 224.308 68.8426L211.814 119.978C209.493 129.476 199.688 135.241 189.916 132.853Z" fill="#37B669"/>
</g>
</g>
</mask>
<g mask="url(#mask0_2311_3301)">
<rect x="21.1115" y="0.971436" width="213.72" height="88.95" transform="rotate(13.7296 21.1115 0.971436)" fill="#FBF8E9"/>
</g>
<path d="M62.3057 61.8762L60.8707 61.5256L67.7831 51.2358L69.1961 51.5811L70.585 63.899L69.1499 63.5484L68.0968 53.2075L68.0085 53.186L62.3057 61.8762ZM63.9144 57.5901L69.6988 59.0034L69.4022 60.2177L63.6178 58.8044L63.9144 57.5901ZM76.4763 53.3598L73.7145 64.6636L72.3457 64.3292L75.1074 53.0253L76.4763 53.3598ZM84.3188 67.2545L80.8305 66.4022L83.5922 55.0984L87.2351 55.9884C88.3316 56.2563 89.2147 56.7118 89.8842 57.355C90.5546 57.9945 90.9947 58.7864 91.2047 59.7306C91.4155 60.6712 91.3779 61.7265 91.0921 62.8966C90.8044 64.0741 90.347 65.0366 89.7198 65.7841C89.0935 66.528 88.3236 67.03 87.41 67.2903C86.4972 67.5469 85.4668 67.535 84.3188 67.2545ZM82.496 65.5224L84.5271 66.0186C85.4618 66.247 86.2804 66.2559 86.983 66.0455C87.6856 65.835 88.2691 65.4336 88.7336 64.8413C89.198 64.249 89.5426 63.4929 89.7674 62.573C89.9903 61.6604 90.0333 60.8384 89.8961 60.107C89.7599 59.3718 89.4387 58.7552 88.9326 58.2572C88.4274 57.7556 87.7332 57.3969 86.8501 57.1811L84.6644 56.6471L82.496 65.5224ZM92.0019 69.1316L94.7637 57.8278L101.586 59.4945L101.289 60.7088L95.8358 59.3765L94.9026 63.196L100.003 64.442L99.7059 65.6563L94.6059 64.4102L93.6674 68.2518L99.2089 69.6057L98.9122 70.82L92.0019 69.1316ZM109.544 64.4337C109.615 63.8582 109.452 63.3583 109.057 62.9342C108.661 62.51 108.121 62.2143 107.437 62.0471C106.936 61.9248 106.479 61.8988 106.064 61.969C105.653 62.0401 105.308 62.1917 105.029 62.4238C104.753 62.6568 104.572 62.9536 104.484 63.3142C104.41 63.6159 104.418 63.8929 104.509 64.145C104.604 64.3944 104.748 64.6187 104.941 64.818C105.135 65.0135 105.346 65.1879 105.573 65.341C105.802 65.4904 106.015 65.6184 106.211 65.7248L107.283 66.3144C107.559 66.4636 107.86 66.6503 108.188 66.8746C108.519 67.0997 108.821 67.3705 109.095 67.6869C109.373 68.0005 109.576 68.366 109.704 68.7833C109.832 69.2007 109.831 69.6743 109.702 70.2041C109.553 70.815 109.258 71.3278 108.817 71.7427C108.38 72.1584 107.821 72.437 107.139 72.5785C106.461 72.7208 105.688 72.6859 104.819 72.4738C104.01 72.276 103.341 71.9741 102.812 71.5681C102.287 71.163 101.912 70.6854 101.688 70.1354C101.467 69.5863 101.411 68.9972 101.517 68.3683L102.93 68.7135C102.863 69.1493 102.92 69.5376 103.102 69.8784C103.289 70.2164 103.558 70.5007 103.911 70.7312C104.269 70.959 104.672 71.1277 105.121 71.2374C105.644 71.3651 106.134 71.395 106.591 71.3274C107.049 71.256 107.437 71.0973 107.754 70.8512C108.072 70.6015 108.282 70.2705 108.383 69.8584C108.474 69.4831 108.444 69.1521 108.292 68.8653C108.14 68.5786 107.91 68.3198 107.604 68.089C107.298 67.8582 106.96 67.6391 106.589 67.4316L105.295 66.6944C104.474 66.2247 103.864 65.6914 103.464 65.0946C103.064 64.4977 102.957 63.8185 103.143 63.0568C103.297 62.4239 103.603 61.9137 104.061 61.5263C104.522 61.1362 105.076 60.8815 105.721 60.7623C106.371 60.6403 107.056 60.6674 107.778 60.8436C108.506 61.0216 109.122 61.3105 109.625 61.7102C110.129 62.1062 110.491 62.5691 110.713 63.0989C110.938 63.6297 110.99 64.1825 110.869 64.7573L109.544 64.4337ZM115.333 62.8534L112.572 74.1573L111.203 73.8228L113.965 62.5189L115.333 62.8534ZM124.942 68.9443C124.911 68.543 124.833 68.1709 124.706 67.828C124.584 67.4823 124.412 67.1713 124.191 66.895C123.974 66.6197 123.707 66.385 123.392 66.191C123.077 65.997 122.715 65.8501 122.307 65.7503C121.637 65.5867 120.986 65.6108 120.353 65.8228C119.72 66.0347 119.16 66.4378 118.671 67.0321C118.183 67.6263 117.819 68.4129 117.58 69.3916C117.341 70.3704 117.303 71.2365 117.466 71.9899C117.629 72.7433 117.948 73.3612 118.423 73.8438C118.897 74.3263 119.484 74.653 120.183 74.8238C120.831 74.982 121.435 74.9834 121.996 74.8279C122.561 74.6696 123.043 74.3703 123.443 73.9299C123.848 73.4868 124.135 72.9193 124.304 72.2275L124.702 72.4183L121.302 71.5876L121.598 70.3734L125.903 71.4252L125.607 72.6395C125.379 73.5704 124.983 74.3314 124.417 74.9224C123.856 75.5143 123.181 75.9148 122.393 76.1239C121.609 76.3302 120.768 76.3237 119.871 76.1043C118.87 75.8598 118.048 75.4094 117.405 74.7532C116.766 74.0979 116.34 73.2844 116.129 72.3126C115.922 71.3417 115.964 70.2602 116.255 69.068C116.474 68.1738 116.79 67.3991 117.204 66.7436C117.622 66.0854 118.113 65.5582 118.678 65.162C119.243 64.7658 119.859 64.5071 120.529 64.3859C121.198 64.2647 121.895 64.2927 122.62 64.4698C123.216 64.6154 123.749 64.8413 124.22 65.1475C124.696 65.4509 125.096 65.8158 125.421 66.2421C125.75 66.6657 125.996 67.1371 126.158 67.6562C126.32 68.1717 126.386 68.7161 126.355 69.2896L124.942 68.9443ZM138.592 68.5361L135.831 79.8399L134.506 79.5163L130.515 69.136L130.404 69.1091L128.236 77.9844L126.867 77.6499L129.629 66.3461L130.953 66.6697L134.961 77.0774L135.072 77.1044L137.246 68.207L138.592 68.5361ZM146.823 73.5416C146.893 72.9661 146.731 72.4663 146.335 72.0421C145.94 71.6179 145.4 71.3223 144.715 71.155C144.215 71.0328 143.757 71.0067 143.342 71.0769C142.931 71.148 142.586 71.2996 142.307 71.5317C142.032 71.7647 141.85 72.0615 141.762 72.4221C141.688 72.7239 141.697 73.0008 141.787 73.253C141.882 73.5023 142.026 73.7267 142.219 73.9259C142.413 74.1215 142.624 74.2958 142.852 74.4489C143.081 74.5984 143.293 74.7263 143.489 74.8328L144.562 75.4223C144.837 75.5715 145.139 75.7583 145.466 75.9825C145.797 76.2077 146.099 76.4784 146.373 76.7948C146.651 77.1085 146.854 77.474 146.982 77.8913C147.111 78.3086 147.11 78.7822 146.98 79.3121C146.831 79.9229 146.536 80.4357 146.096 80.8506C145.659 81.2663 145.099 81.545 144.418 81.6864C143.739 81.8288 142.966 81.7939 142.098 81.5817C141.288 81.3839 140.619 81.082 140.091 80.676C139.566 80.2709 139.191 79.7934 138.967 79.2433C138.746 78.6942 138.689 78.1052 138.796 77.4762L140.209 77.8214C140.141 78.2572 140.199 78.6456 140.381 78.9863C140.567 79.3243 140.837 79.6086 141.19 79.8392C141.548 80.0669 141.951 80.2356 142.4 80.3453C142.922 80.473 143.412 80.503 143.869 80.4353C144.327 80.364 144.715 80.2052 145.033 79.9592C145.351 79.7094 145.56 79.3785 145.661 78.9663C145.753 78.591 145.723 78.26 145.57 77.9733C145.418 77.6865 145.189 77.4277 144.883 77.1969C144.576 76.9662 144.238 76.747 143.868 76.5395L142.574 75.8023C141.753 75.3326 141.142 74.7994 140.742 74.2025C140.342 73.6057 140.235 72.9264 140.421 72.1647C140.576 71.5318 140.882 71.0217 141.339 70.6343C141.801 70.2441 142.354 69.9894 143 69.8702C143.649 69.7482 144.335 69.7753 145.056 69.9515C145.785 70.1295 146.4 70.4184 146.903 70.8181C147.407 71.2141 147.77 71.6771 147.991 72.2069C148.216 72.7376 148.268 73.2904 148.147 73.8652L146.823 73.5416Z" fill="black"/>
<path d="M61.7166 56.3396L148.357 77.5077L148.098 78.5674L61.4577 57.3993L61.7166 56.3396Z" fill="black"/>
<defs>
<clipPath id="clip0_2311_3301">
<rect width="213.72" height="88.95" fill="white" transform="translate(21.1115 0.971436) rotate(13.7296)"/>
</clipPath>
<clipPath id="clip1_2311_3301">
<rect width="213.684" height="88.95" fill="white" transform="translate(21.1287 0.975708) rotate(13.7296)"/>
</clipPath>
</defs>
</svg>
