<svg width="194" height="121" viewBox="0 0 194 121" fill="none" xmlns="http://www.w3.org/2000/svg">
<mask id="mask0_2311_3288" style="mask-type:alpha" maskUnits="userSpaceOnUse" x="0" y="0" width="194" height="124">
<g clip-path="url(#clip0_2311_3288)">
<g clip-path="url(#clip1_2311_3288)">
<path d="M35.949 118.11C27.849 120.541 19.3678 116.128 17.0058 108.256L4.29103 65.8743C1.9291 58.0014 6.58089 49.6493 14.681 47.2192C22.781 44.7891 31.2622 49.2012 33.6242 57.0741L46.339 99.4554C48.7009 107.328 44.0491 115.68 35.949 118.11Z" fill="#37B669"/>
<path d="M64.4581 109.557C56.3581 111.988 47.8769 107.575 45.5149 99.7026L32.8001 57.3213C30.4382 49.4484 35.09 41.0963 43.1901 38.6662C51.2901 36.2361 59.7713 40.6482 62.1333 48.5211L74.8481 90.9024C77.21 98.7753 72.5582 107.127 64.4581 109.557Z" fill="#37B669"/>
<path d="M92.9681 101.004C84.868 103.434 76.3868 99.0221 74.0249 91.1493L61.3101 48.768C58.9481 40.8951 63.5999 32.543 71.7 30.1129C79.8001 27.6828 88.2813 32.0949 90.6432 39.9677L103.358 82.349C105.719 90.2222 101.067 98.5743 92.9681 101.004Z" fill="#37B669"/>
<path d="M121.477 92.4512C113.377 94.8813 104.896 90.4692 102.534 82.5963L89.8192 40.215C87.4573 32.3421 92.1091 23.99 100.209 21.5599C108.309 19.1298 116.79 23.5419 119.152 31.4148L131.867 73.7961C134.229 81.6689 129.577 90.0211 121.477 92.4512Z" fill="#37B669"/>
<path d="M149.986 83.8982C141.886 86.3283 133.405 81.9162 131.043 74.0433L118.328 31.662C115.966 23.7891 120.618 15.437 128.718 13.0069C136.818 10.5768 145.3 14.9889 147.661 22.8618L160.376 65.2431C162.738 73.116 158.086 81.4681 149.986 83.8982Z" fill="#37B669"/>
<path d="M178.496 75.345C170.396 77.7751 161.915 73.363 159.553 65.4901L146.838 23.1088C144.476 15.2359 149.128 6.88379 157.228 4.45369C165.328 2.02359 173.809 6.43568 176.171 14.3086L188.886 56.6899C191.247 64.563 186.596 72.9151 178.496 75.345Z" fill="#37B669"/>
</g>
</g>
</mask>
<g mask="url(#mask0_2311_3288)">
<rect y="51.6236" width="179.65" height="74.77" transform="rotate(-16.6998 0 51.6236)" fill="#ED5D3A"/>
</g>
<path d="M53.4394 68.2268L56.7832 79.3724L55.477 79.7643L46.7782 72.8354L46.6693 72.868L49.2947 81.619L47.9451 82.0239L44.6013 70.8784L45.9074 70.4865L54.6346 77.4307L54.7434 77.398L52.1115 68.6252L53.4394 68.2268ZM59.4838 78.5622L56.1401 67.4166L62.8666 65.3986L63.2258 66.5959L57.8489 68.209L58.9787 71.975L64.0073 70.4663L64.3665 71.6636L59.3379 73.1722L60.4743 76.96L65.9383 75.3208L66.2974 76.518L59.4838 78.5622ZM70.6675 75.207L64.2761 64.9757L65.6475 64.5643L70.7002 72.943L70.809 72.9104L70.4584 63.121L71.9822 62.6638L77.0784 71.0295L77.1872 70.9968L76.7931 61.2205L78.1646 60.809L78.4607 72.8689L77.0675 73.2869L71.9431 65.1433L71.856 65.1694L72.0607 74.789L70.6675 75.207ZM86.7774 61.2623C86.5466 60.7304 86.1533 60.3818 85.5975 60.2163C85.0417 60.0509 84.4263 60.0694 83.7515 60.2719C83.2581 60.4199 82.8503 60.6292 82.5281 60.8999C82.2096 61.1695 81.9888 61.475 81.8658 61.8164C81.7464 62.1567 81.7401 62.5046 81.8468 62.8602C81.936 63.1577 82.0835 63.3922 82.2892 63.5638C82.4975 63.7307 82.7353 63.8512 83.0027 63.9252C83.269 63.9956 83.5391 64.0391 83.813 64.0558C84.0859 64.0689 84.3339 64.0716 84.557 64.064L85.7804 64.0291C86.0935 64.0182 86.448 64.0266 86.8438 64.0542C87.2433 64.0806 87.6411 64.161 88.0373 64.2952C88.436 64.4248 88.7963 64.637 89.1181 64.932C89.4399 65.2269 89.6792 65.6356 89.8359 66.1581C90.0166 66.7603 90.0221 67.3519 89.8523 67.9328C89.6861 68.5126 89.3449 69.0361 88.8286 69.5034C88.316 69.9696 87.6315 70.3312 86.7753 70.5881C85.9771 70.8275 85.2473 70.9061 84.5859 70.8237C83.9281 70.7403 83.3632 70.5182 82.8912 70.1576C82.4228 69.7959 82.0754 69.3168 81.849 68.7203L83.2422 68.3024C83.4047 68.7123 83.6507 69.0182 83.9802 69.2199C84.3121 69.4169 84.6887 69.5254 85.11 69.5453C85.5337 69.5606 85.9669 69.5018 86.4096 69.369C86.9248 69.2144 87.3623 68.9922 87.7222 68.7023C88.081 68.4088 88.335 68.0756 88.4841 67.7026C88.6321 67.326 88.6452 66.9345 88.5233 66.5282C88.4123 66.1581 88.2185 65.888 87.9421 65.7178C87.6656 65.5477 87.3369 65.4406 86.9559 65.3967C86.575 65.3528 86.1722 65.3352 85.7478 65.344L84.2588 65.3636C83.3129 65.3745 82.5164 65.2239 81.8691 64.9119C81.2218 64.5999 80.7855 64.0684 80.5602 63.3173C80.373 62.6933 80.3785 62.0985 80.5765 61.5328C80.7772 60.9625 81.1255 60.4625 81.6214 60.033C82.1199 59.5987 82.7247 59.2749 83.4359 59.0615C84.1542 58.846 84.8314 58.7832 85.4674 58.8732C86.1023 58.9595 86.6495 59.175 87.1088 59.5197C87.5717 59.8633 87.8967 60.3135 88.0835 60.8705L86.7774 61.2623ZM92.9628 68.5182L89.619 57.3726L90.9686 56.9677L93.9532 66.916L99.1342 65.3617L99.4934 66.5589L92.9628 68.5182ZM101.583 65.932L98.2394 54.7864L104.966 52.7684L105.325 53.9657L99.9483 55.5788L101.078 59.3448L106.107 57.8361L106.466 59.0334L101.437 60.542L102.574 64.3298L108.038 62.6906L108.397 63.8878L101.583 65.932ZM107.148 53.4187L106.789 52.2214L115.148 49.7136L115.507 50.9109L112.003 51.9623L114.987 61.9106L113.638 62.3155L110.653 52.3672L107.148 53.4187ZM116.981 50.4688L116.622 49.2715L124.981 46.7637L125.34 47.961L121.835 49.0124L124.82 58.9607L123.47 59.3656L120.486 49.4173L116.981 50.4688ZM130.408 57.2844L127.064 46.1388L133.79 44.1207L134.15 45.318L128.773 46.9311L129.903 50.6971L134.931 49.1885L135.29 50.3858L130.262 51.8944L131.398 55.6822L136.862 54.0429L137.221 55.2402L130.408 57.2844ZM139.567 54.5365L136.223 43.3909L139.989 42.2611C140.86 41.9999 141.619 41.9342 142.267 42.0641C142.914 42.1903 143.449 42.4708 143.872 42.9054C144.295 43.3401 144.605 43.8857 144.802 44.5424C144.999 45.1991 145.04 45.8217 144.924 46.4102C144.807 46.9987 144.515 47.5213 144.047 47.9781C143.578 48.4312 142.912 48.7873 142.048 49.0464L139.001 49.9607L138.635 48.7417L141.639 47.8404C142.234 47.6619 142.687 47.4312 142.998 47.1482C143.312 46.8641 143.503 46.5379 143.57 46.1696C143.64 45.7967 143.608 45.3871 143.474 44.9408C143.34 44.4945 143.14 44.1295 142.873 43.8458C142.606 43.5621 142.262 43.3845 141.841 43.313C141.419 43.238 140.907 43.2907 140.305 43.4714L137.932 44.1833L140.917 54.1316L139.567 54.5365ZM143.311 47.9558L147.556 52.1397L145.989 52.6099L141.787 48.4129L143.311 47.9558Z" fill="white"/>
<path d="M45.09 77.4112L146.508 46.9849L146.821 48.0298L45.4035 78.4561L45.09 77.4112Z" fill="white"/>
<defs>
<clipPath id="clip0_2311_3288">
<rect width="179.65" height="74.77" fill="white" transform="translate(0 51.6236) rotate(-16.6998)"/>
</clipPath>
<clipPath id="clip1_2311_3288">
<rect width="179.62" height="74.77" fill="white" transform="translate(0.0144043 51.6193) rotate(-16.6998)"/>
</clipPath>
</defs>
</svg>
