<svg width="190" height="105" viewBox="0 0 190 105" fill="none" xmlns="http://www.w3.org/2000/svg">
<mask id="mask0_2311_3081" style="mask-type:alpha" maskUnits="userSpaceOnUse" x="0" y="0" width="190" height="105">
<g clip-path="url(#clip0_2311_3081)">
<g clip-path="url(#clip1_2311_3081)">
<path d="M15.2382 75.5481C6.9087 74.0865 1.30782 66.3388 2.7284 58.2429L10.3757 14.6613C11.7963 6.56542 19.7003 1.18742 28.0298 2.649C36.3593 4.11057 41.9602 11.8583 40.5396 19.9541L32.8923 63.5358C31.4717 71.6317 23.5677 77.0097 15.2382 75.5481Z" fill="#37B669"/>
<path d="M44.5548 80.6922C36.2253 79.2307 30.6244 71.483 32.045 63.3871L39.6923 19.8054C41.1128 11.7096 49.0169 6.33159 57.3464 7.79316C65.6759 9.25474 71.2767 17.0025 69.8562 25.0983L62.2089 68.68C60.7883 76.7758 52.8842 82.1538 44.5548 80.6922Z" fill="#37B669"/>
<path d="M73.8722 85.8367C65.5427 84.3751 59.9418 76.6274 61.3624 68.5315L69.0097 24.9498C70.4303 16.854 78.3343 11.476 86.6638 12.9376C94.9933 14.3991 100.594 22.1469 99.1736 30.2427L91.5263 73.8244C90.1049 81.9201 82.2008 87.2981 73.8722 85.8367Z" fill="#37B669"/>
<path d="M103.189 90.9808C94.8593 89.5192 89.2584 81.7715 90.679 73.6757L98.3262 30.094C99.7468 21.9982 107.651 16.6202 115.98 18.0817C124.31 19.5433 129.911 27.291 128.49 35.3869L120.843 78.9685C119.422 87.0644 111.518 92.4424 103.189 90.9808Z" fill="#37B669"/>
<path d="M132.505 96.125C124.176 94.6634 118.575 86.9157 119.996 78.8198L127.643 35.2382C129.063 27.1423 136.967 21.7643 145.297 23.2259C153.626 24.6875 159.227 32.4352 157.807 40.531L150.159 84.1127C148.739 92.2086 140.835 97.5866 132.505 96.125Z" fill="#37B669"/>
<path d="M161.823 101.269C153.493 99.8077 147.892 92.06 149.313 83.9641L156.96 40.3825C158.381 32.2866 166.285 26.9086 174.614 28.3702C182.944 29.8318 188.545 37.5795 187.124 45.6753L179.477 89.257C178.055 97.3527 170.151 102.731 161.823 101.269Z" fill="#37B669"/>
</g>
</g>
</mask>
<g mask="url(#mask0_2311_3081)">
<rect x="12.933" width="179.65" height="74.77" transform="rotate(9.95239 12.933 0)" fill="#ED5D3A"/>
</g>
<path d="M47.1446 49.4266L49.1557 37.9653L53.1627 38.6684C53.9611 38.8085 54.5954 39.0621 55.0655 39.4292C55.5363 39.7925 55.858 40.2278 56.0305 40.7349C56.2037 41.2384 56.2412 41.7699 56.143 42.3295C56.0566 42.822 55.8975 43.2133 55.6659 43.5033C55.438 43.7941 55.1659 44.0079 54.8496 44.1446C54.537 44.2821 54.2088 44.3668 53.8647 44.3987L53.8451 44.5106C54.1919 44.5946 54.5228 44.7795 54.838 45.0656C55.1531 45.3516 55.3934 45.7245 55.5589 46.1843C55.7243 46.644 55.754 47.1761 55.648 47.7805C55.5472 48.3551 55.3259 48.8489 54.9842 49.262C54.6426 49.675 54.1665 49.9665 53.556 50.1362C52.9455 50.306 52.1888 50.3117 51.2859 50.1532L47.1446 49.4266ZM48.7486 48.4389L51.5019 48.9221C52.4085 49.0811 53.0829 49.0187 53.525 48.7348C53.9715 48.4478 54.2389 48.0524 54.3273 47.5488C54.3953 47.1608 54.3593 46.7853 54.2192 46.4222C54.0797 46.0555 53.8445 45.7412 53.5136 45.4793C53.1833 45.2137 52.7682 45.037 52.2683 44.9493L49.4477 44.4543L48.7486 48.4389ZM49.6598 43.2455L52.2341 43.6973C52.652 43.7706 53.0432 43.7546 53.4078 43.6494C53.7761 43.5448 54.0853 43.3606 54.3354 43.0968C54.5893 42.8337 54.7516 42.5007 54.8223 42.0978C54.9106 41.5941 54.8102 41.1361 54.5211 40.7239C54.2326 40.3079 53.7078 40.0332 52.9467 39.8996L50.3276 39.44L49.6598 43.2455ZM57.3943 51.2251L59.4054 39.7638L63.278 40.4434C64.1735 40.6005 64.8816 40.8824 65.4025 41.2892C65.924 41.6922 66.2763 42.1828 66.4594 42.761C66.6426 43.3393 66.6749 43.966 66.5564 44.6413C66.4379 45.3166 66.1948 45.8912 65.827 46.3651C65.4593 46.8389 64.9638 47.175 64.3406 47.3733C63.7181 47.5679 62.9629 47.5873 62.0749 47.4315L58.941 46.8816L59.1609 45.628L62.2501 46.1701C62.862 46.2774 63.3702 46.2743 63.7747 46.1607C64.1829 46.0477 64.4998 45.8418 64.7253 45.543C64.9552 45.241 65.1104 44.8606 65.1909 44.4017C65.2714 43.9428 65.256 43.5267 65.1446 43.1533C65.0332 42.78 64.8055 42.467 64.4614 42.2143C64.1179 41.9579 63.6366 41.7754 63.0172 41.6667L60.5772 41.2386L58.7822 51.4686L57.3943 51.2251ZM63.6926 47.0231L65.6097 52.6666L63.9979 52.3838L62.1256 46.7482L63.6926 47.0231ZM67.9447 53.0764L66.4897 52.8211L72.7092 42.0983L74.1419 42.3496L76.3392 54.5494L74.8842 54.294L73.1522 44.045L73.0626 44.0293L67.9447 53.0764ZM69.2676 48.6936L75.1325 49.7227L74.9165 50.9539L69.0515 49.9248L69.2676 48.6936ZM89.224 44.9961L87.2129 56.4574L85.8697 56.2217L81.2033 46.1269L81.0914 46.1073L79.5123 55.1061L78.1244 54.8626L80.1356 43.4014L81.4787 43.637L86.1636 53.7581L86.2755 53.7778L87.8585 44.7565L89.224 44.9961ZM93.5269 57.5653L89.99 56.9447L92.0011 45.4834L95.6947 46.1315C96.8065 46.3266 97.7176 46.723 98.428 47.3207C99.1391 47.9146 99.6305 48.6758 99.9022 49.6041C100.174 50.5288 100.207 51.5843 99.9984 52.7707C99.7889 53.9646 99.3959 54.9551 98.8193 55.7423C98.2434 56.5258 97.5082 57.0775 96.6137 57.3974C95.7199 57.7136 94.6909 57.7695 93.5269 57.5653ZM91.594 55.957L93.6534 56.3184C94.601 56.4847 95.4185 56.4397 96.1057 56.1834C96.7929 55.9271 97.3487 55.4881 97.7731 54.8665C98.1976 54.2449 98.4916 53.4677 98.6553 52.535C98.8176 51.6098 98.8063 50.7867 98.6213 50.0658C98.4369 49.3413 98.0758 48.7472 97.538 48.2836C97.0008 47.8163 96.2845 47.5041 95.3891 47.347L93.173 46.9581L91.594 55.957ZM104.716 47.7145L102.705 59.1757L101.317 58.9322L103.328 47.471L104.716 47.7145ZM116.587 49.7975L114.576 61.2588L113.233 61.0231L108.566 50.9283L108.455 50.9087L106.876 59.9076L105.488 59.664L107.499 48.2028L108.842 48.4385L113.527 58.5595L113.639 58.5792L115.222 49.5579L116.587 49.7975ZM126.571 55.2413C126.514 54.8428 126.411 54.4767 126.262 54.1429C126.117 53.806 125.925 53.507 125.686 53.2459C125.451 52.9854 125.17 52.7688 124.843 52.596C124.515 52.4232 124.145 52.3005 123.731 52.2278C123.052 52.1086 122.403 52.1756 121.786 52.4288C121.168 52.682 120.636 53.1211 120.188 53.7463C119.739 54.3714 119.428 55.1802 119.254 56.1726C119.08 57.165 119.099 58.0317 119.311 58.7727C119.524 59.5137 119.882 60.1094 120.388 60.5596C120.894 61.0098 121.501 61.2971 122.21 61.4215C122.866 61.5367 123.469 61.4982 124.018 61.3062C124.572 61.111 125.033 60.7805 125.404 60.3148C125.778 59.8459 126.027 59.2608 126.15 58.5594L126.56 58.7236L123.112 58.1187L123.328 56.8875L127.693 57.6534L127.477 58.8846C127.312 59.8285 126.966 60.614 126.441 61.2409C125.919 61.8686 125.272 62.3126 124.5 62.5732C123.731 62.8307 122.892 62.8795 121.982 62.7198C120.967 62.5417 120.117 62.1465 119.433 61.5341C118.751 60.9223 118.274 60.1386 117.999 59.1828C117.728 58.2277 117.699 57.1457 117.911 55.9369C118.07 55.0303 118.334 54.2364 118.704 53.5551C119.078 52.8708 119.534 52.3124 120.071 51.8798C120.608 51.4472 121.207 51.1485 121.866 50.9835C122.526 50.8185 123.223 50.8005 123.958 50.9294C124.563 51.0355 125.11 51.2258 125.6 51.5002C126.095 51.7716 126.518 52.1093 126.871 52.5134C127.227 52.9144 127.503 53.3685 127.699 53.8759C127.895 54.3795 127.996 54.9184 128.003 55.4927L126.571 55.2413Z" fill="white"/>
<path d="M46.6621 44.0232L128.578 58.3971L128.39 59.4716L46.4736 45.0977L46.6621 44.0232Z" fill="white"/>
<defs>
<clipPath id="clip0_2311_3081">
<rect width="179.65" height="74.77" fill="white" transform="translate(12.933) rotate(9.95239)"/>
</clipPath>
<clipPath id="clip1_2311_3081">
<rect width="179.62" height="74.77" fill="white" transform="translate(12.9479 0.00256348) rotate(9.95239)"/>
</clipPath>
</defs>
</svg>
