<svg width="185" height="166" viewBox="0 0 185 166" fill="none" xmlns="http://www.w3.org/2000/svg">
<mask id="mask0_2311_3314" style="mask-type:alpha" maskUnits="userSpaceOnUse" x="0" y="0" width="185" height="187">
<g clip-path="url(#clip0_2311_3314)">
<g clip-path="url(#clip1_2311_3314)">
<path d="M135.852 103.906C143.621 95.9622 145.35 84.675 140.565 76.8747C148.47 81.4849 159.717 79.5069 167.487 71.5635C176.422 62.4289 177.374 48.8712 169.613 41.2806C162.864 34.6791 151.75 34.7688 143.091 40.9115C149.041 32.1185 148.885 21.0052 142.136 14.4037C134.376 6.81308 120.842 8.06469 111.907 17.1993C104.138 25.1427 102.409 36.4305 107.192 44.2314C99.2883 39.6206 88.0421 41.5979 80.2723 49.5414C72.502 57.4854 70.7731 68.7732 75.5574 76.5735C67.6533 71.9627 56.4065 73.9406 48.6367 81.884C40.8663 89.8281 39.1374 101.116 43.9218 108.916C36.0177 104.305 24.7708 106.283 17.001 114.227C8.06616 123.361 7.11392 136.919 14.8742 144.51C21.6233 151.111 32.7373 151.021 41.3966 144.879C35.4468 153.672 35.6027 164.785 42.3518 171.387C50.112 178.977 63.6454 177.726 72.5803 168.591C80.35 160.648 82.079 149.36 77.2946 141.559C85.1987 146.17 96.4456 144.192 104.216 136.248C111.986 128.305 113.715 117.017 108.93 109.217C116.834 113.828 128.081 111.85 135.852 103.906Z" fill="#37B669"/>
</g>
</g>
</mask>
<g mask="url(#mask0_2311_3314)">
<rect y="131.38" width="183.78" height="78.63" transform="rotate(-45.6332 0 131.38)" fill="#F4FF77"/>
</g>
<path d="M64.8398 129.031L56.5212 120.895L59.2706 118.084C59.9089 117.431 60.5485 117.013 61.1893 116.829C61.8301 116.64 62.4475 116.64 63.0415 116.829C63.6356 117.018 64.1777 117.352 64.6678 117.831C65.1579 118.311 65.5054 118.847 65.7101 119.439C65.9176 120.029 65.9378 120.647 65.7708 121.295C65.6012 121.939 65.1998 122.585 64.5668 123.232L62.5962 125.247L61.7026 124.373L63.6414 122.391C64.0784 121.944 64.3522 121.51 64.4627 121.088C64.5733 120.666 64.5568 120.266 64.4133 119.887C64.2698 119.503 64.0315 119.148 63.6984 118.822C63.3653 118.497 63.0065 118.267 62.622 118.135C62.2402 118 61.841 117.996 61.4246 118.124C61.0054 118.249 60.5747 118.538 60.1324 118.99L58.4001 120.761L65.8251 128.024L64.8398 129.031ZM74.6476 110.684C75.525 111.542 76.1282 112.442 76.4574 113.384C76.7866 114.326 76.8543 115.242 76.6606 116.134C76.4668 117.025 76.023 117.826 75.329 118.535C74.6351 119.245 73.8447 119.706 72.9577 119.919C72.0708 120.133 71.1528 120.085 70.2039 119.777C69.2549 119.469 68.3418 118.886 67.4644 118.027C66.5871 117.169 65.9838 116.269 65.6547 115.327C65.3255 114.385 65.2578 113.469 65.4515 112.577C65.6452 111.686 66.0891 110.885 66.783 110.176C67.477 109.466 68.2674 109.005 69.1543 108.792C70.0413 108.578 70.9592 108.626 71.9082 108.934C72.8571 109.242 73.7703 109.825 74.6476 110.684ZM73.6941 111.658C72.9738 110.954 72.248 110.48 71.5168 110.236C70.7881 109.99 70.0966 109.946 69.4421 110.106C68.7903 110.264 68.218 110.594 67.7254 111.098C67.2327 111.601 66.9137 112.182 66.7683 112.84C66.6255 113.495 66.684 114.186 66.9438 114.911C67.2063 115.634 67.6977 116.348 68.418 117.053C69.1382 117.757 69.8627 118.233 70.5913 118.479C71.3226 118.723 72.0142 118.766 72.666 118.609C73.3205 118.449 73.8941 118.117 74.3867 117.613C74.8794 117.11 75.1971 116.53 75.3398 115.875C75.4852 115.217 75.4267 114.527 75.1643 113.804C74.9045 113.078 74.4144 112.363 73.6941 111.658ZM80.4637 113.058L72.1451 104.921L74.8944 102.111C75.5301 101.461 76.1629 101.036 76.7928 100.836C77.4201 100.634 78.024 100.62 78.6045 100.796C79.185 100.972 79.7203 101.299 80.2104 101.779C80.7006 102.258 81.0372 102.783 81.2203 103.355C81.4034 103.926 81.4006 104.525 81.212 105.151C81.0207 105.774 80.6098 106.408 79.9794 107.053L77.7545 109.327L76.8447 108.437L79.0378 106.195C79.4722 105.751 79.7568 105.33 79.8917 104.932C80.0293 104.532 80.0385 104.154 79.9194 103.799C79.8002 103.439 79.5741 103.096 79.241 102.77C78.908 102.444 78.5559 102.222 78.185 102.102C77.814 101.983 77.4271 101.994 77.0242 102.135C76.6186 102.274 76.1959 102.568 75.7562 103.017L74.024 104.788L81.449 112.051L80.4637 113.058ZM80.5568 105.487L86.296 107.095L85.1518 108.265L79.4443 106.625L80.5568 105.487ZM79.7501 98.9341L78.8565 98.0601L84.959 91.8211L85.8526 92.6952L83.294 95.311L90.719 102.574L89.7337 103.581L82.3087 96.3183L79.7501 98.9341ZM94.7983 98.4032L86.4797 90.2665L91.3586 85.2786L92.2522 86.1527L88.3586 90.1332L91.1694 92.8826L94.6974 89.2757L95.591 90.1497L92.063 93.7566L95.7836 97.3959L94.7983 98.4032ZM104.071 80.6029C104.948 81.4611 105.551 82.3611 105.881 83.303C106.21 84.2449 106.277 85.1616 106.084 86.053C105.89 86.9445 105.446 87.7449 104.752 88.4544C104.058 89.1638 103.268 89.6253 102.381 89.8386C101.494 90.052 100.576 90.0046 99.627 89.6963C98.678 89.388 97.7649 88.8048 96.8875 87.9467C96.0102 87.0885 95.4069 86.1884 95.0778 85.2465C94.7486 84.3046 94.6809 83.388 94.8746 82.4965C95.0683 81.6051 95.5122 80.8046 96.2061 80.0952C96.9001 79.3857 97.6905 78.9243 98.5775 78.7109C99.4644 78.4975 100.382 78.545 101.331 78.8533C102.28 79.1615 103.193 79.7447 104.071 80.6029ZM103.117 81.5777C102.397 80.8732 101.671 80.3991 100.94 80.1554C100.211 79.9089 99.5197 79.8657 98.8652 80.0256C98.2134 80.1828 97.6411 80.5132 97.1485 81.0169C96.6558 81.5206 96.3368 82.1013 96.1914 82.7592C96.0486 83.4144 96.1071 84.1048 96.3669 84.8305C96.6294 85.5535 97.1208 86.2673 97.8411 86.9718C98.5614 87.6764 99.2858 88.1518 100.014 88.3983C100.746 88.642 101.437 88.6852 102.089 88.528C102.744 88.3681 103.317 88.0363 103.81 87.5326C104.302 87.029 104.62 86.4496 104.763 85.7944C104.908 85.1366 104.85 84.4461 104.587 83.7231C104.328 82.9974 103.838 82.2823 103.117 81.5777ZM109.887 82.9775L101.568 74.8408L102.554 73.8334L109.978 81.0961L113.761 77.2293L114.654 78.1033L109.887 82.9775ZM108.847 67.3995L117.165 75.5363L116.18 76.5436L107.861 68.4069L108.847 67.3995ZM121.847 62.4294C122.724 63.2875 123.328 64.1876 123.657 65.1295C123.986 66.0714 124.054 66.9881 123.86 67.8795C123.666 68.7709 123.222 69.5714 122.528 70.2809C121.834 70.9903 121.044 71.4517 120.157 71.6651C119.27 71.8785 118.352 71.831 117.403 71.5228C116.454 71.2145 115.541 70.6313 114.664 69.7731C113.786 68.915 113.183 68.0149 112.854 67.073C112.525 66.1311 112.457 65.2144 112.651 64.323C112.845 63.4316 113.288 62.6311 113.982 61.9216C114.676 61.2122 115.467 60.7508 116.354 60.5374C117.241 60.324 118.159 60.3715 119.108 60.6797C120.056 60.988 120.97 61.5712 121.847 62.4294ZM120.893 63.4042C120.173 62.6997 119.447 62.2255 118.716 61.9818C117.987 61.7354 117.296 61.6922 116.641 61.8521C115.99 62.0093 115.417 62.3397 114.925 62.8434C114.432 63.347 114.113 63.9278 113.968 64.5857C113.825 65.2408 113.883 65.9313 114.143 66.657C114.406 67.38 114.897 68.0937 115.617 68.7983C116.338 69.5028 117.062 69.9783 117.791 70.2247C118.522 70.4684 119.214 70.5117 119.865 70.3545C120.52 70.1946 121.093 69.8628 121.586 69.3591C122.079 68.8555 122.396 68.276 122.539 67.6209C122.685 66.963 122.626 66.2726 122.364 65.5496C122.104 64.8239 121.614 64.1088 120.893 63.4042Z" fill="#161614"/>
<path d="M60.1095 126.375L122.929 62.1522L123.709 62.9151L60.8894 127.138L60.1095 126.375Z" fill="#161614"/>
<defs>
<clipPath id="clip0_2311_3314">
<rect width="183.78" height="78.63" fill="white" transform="translate(0 131.38) rotate(-45.6332)"/>
</clipPath>
<clipPath id="clip1_2311_3314">
<rect width="183.764" height="78.63" fill="white" transform="translate(0.00543213 131.375) rotate(-45.6332)"/>
</clipPath>
</defs>
</svg>
