<svg width="200" height="136" viewBox="0 0 200 136" fill="none" xmlns="http://www.w3.org/2000/svg">
<mask id="mask0_2311_3322" style="mask-type:alpha" maskUnits="userSpaceOnUse" x="0" y="0" width="200" height="135">
<g clip-path="url(#clip0_2311_3322)">
<g clip-path="url(#clip1_2311_3322)">
<path d="M133.949 96.3884C144.435 92.7138 150.989 83.3633 150.16 74.2503C155.201 81.8875 166.158 85.1017 176.645 81.4271C188.704 77.2015 195.569 65.4717 191.979 55.2271C188.857 46.3174 178.855 41.4697 168.37 43.1358C177.602 37.8928 182.39 27.8626 179.268 18.9529C175.678 8.70831 162.993 3.82928 150.934 8.0549C140.448 11.7295 133.893 21.0803 134.722 30.1936C129.681 22.5561 118.724 19.3416 108.238 23.0162C97.7508 26.6911 91.196 36.0419 92.0256 45.1549C86.9855 37.5174 76.0277 34.3032 65.5413 37.9778C55.0541 41.6527 48.4992 51.0035 49.3288 60.1165C44.2887 52.4789 33.3309 49.2648 22.8445 52.9394C10.7856 57.165 3.92042 68.8948 7.51028 79.1394C10.6324 88.0491 20.6338 92.8968 31.1191 91.2306C21.8872 96.4737 17.0992 106.504 20.2213 115.414C23.8112 125.658 36.4963 130.537 48.5552 126.312C59.0416 122.637 65.5964 113.286 64.7669 104.173C69.807 111.811 80.7648 115.025 91.252 111.35C101.738 107.675 108.293 98.3246 107.464 89.2116C112.503 96.8494 123.462 100.063 133.949 96.3884Z" fill="#37B669"/>
</g>
</g>
</mask>
<g mask="url(#mask0_2311_3322)">
<rect y="60.7759" width="183.78" height="78.63" transform="rotate(-19.3112 0 60.7759)" fill="#6AEA9C"/>
</g>
<path d="M64.2148 85.9011L57.3639 75.9716L58.7151 75.4981L64.1443 83.638L64.2515 83.6004L63.4553 73.8371L64.9567 73.311L70.4287 81.4358L70.5359 81.3983L69.6968 71.65L71.0481 71.1765L71.8934 83.2104L70.5207 83.6914L65.0305 75.7897L64.9447 75.8198L65.5875 85.4201L64.2148 85.9011ZM76.5531 81.5776L72.705 70.5959L79.3326 68.2735L79.7459 69.4532L74.4481 71.3096L75.7484 75.0202L80.703 73.284L81.1164 74.4637L76.1618 76.1999L77.4695 79.9319L82.8531 78.0454L83.2665 79.2251L76.5531 81.5776ZM85.5776 78.4152L81.7294 67.4336L85.5687 66.0882C86.3337 65.8202 87.011 65.7314 87.6006 65.8218C88.1889 65.9086 88.6823 66.1311 89.0807 66.4892C89.4779 66.8437 89.7704 67.289 89.9583 67.8253C90.1237 68.2971 90.1762 68.7162 90.1159 69.0825C90.0592 69.4476 89.9263 69.7671 89.7173 70.041C89.5118 70.3137 89.2668 70.548 88.9823 70.7441L89.0199 70.8513C89.3634 70.755 89.7426 70.7546 90.1573 70.8501C90.5721 70.9456 90.964 71.1534 91.3331 71.4736C91.7022 71.7938 91.9882 72.2435 92.1911 72.8226C92.384 73.3731 92.4324 73.912 92.3362 74.4394C92.2401 74.9668 91.9672 75.4538 91.5176 75.9003C91.068 76.3468 90.4106 76.7217 89.5456 77.0248L85.5776 78.4152ZM86.494 76.7696L89.1322 75.8451C90.0008 75.5407 90.5586 75.1566 90.8055 74.6929C91.0547 74.2242 91.0947 73.7486 90.9256 73.266C90.7954 72.8942 90.5804 72.5843 90.2807 72.3361C89.9797 72.0843 89.6209 71.9251 89.2042 71.8584C88.7862 71.7881 88.3377 71.8369 87.8587 72.0047L85.1562 72.9518L86.494 76.7696ZM84.7503 71.7935L87.2169 70.9292C87.6173 70.7889 87.9508 70.5837 88.2174 70.3137C88.4876 70.0424 88.6673 69.7306 88.7565 69.3782C88.8494 69.0246 88.8281 68.6548 88.6928 68.2687C88.5237 67.7861 88.2123 67.4357 87.7585 67.2174C87.3035 66.9955 86.7114 67.0124 85.9821 67.2679L83.4726 68.1473L84.7503 71.7935ZM95.3983 74.9739L91.5502 63.9923L98.1349 61.6849L98.5483 62.8645L93.2934 64.7059L94.5936 68.4165L99.3552 66.748L99.7686 67.9277L95.007 69.5962L96.7281 74.5079L95.3983 74.9739ZM104.261 71.8684L100.412 60.8868L101.742 60.4208L105.177 70.2228L110.282 68.434L110.695 69.6137L104.261 71.8684ZM119.668 60.3043C120.074 61.4625 120.216 62.5367 120.093 63.5269C119.971 64.5171 119.625 65.3688 119.056 66.0819C118.487 66.795 117.734 67.3157 116.798 67.6439C115.861 67.9721 114.948 68.0351 114.058 67.8331C113.169 67.6311 112.367 67.1815 111.653 66.4844C110.939 65.7874 110.379 64.8597 109.974 63.7015C109.568 62.5433 109.426 61.469 109.549 60.4788C109.671 59.4886 110.017 58.637 110.586 57.9239C111.155 57.2108 111.908 56.6901 112.844 56.3619C113.781 56.0337 114.694 55.9706 115.584 56.1727C116.473 56.3747 117.275 56.8243 117.989 57.5213C118.703 58.2184 119.262 59.1461 119.668 60.3043ZM118.381 60.7552C118.048 59.8044 117.608 59.0576 117.06 58.5149C116.517 57.9709 115.916 57.6255 115.258 57.4786C114.605 57.3305 113.945 57.3729 113.28 57.6059C112.615 57.8389 112.072 58.218 111.65 58.7432C111.231 59.2671 110.978 59.9119 110.889 60.6776C110.803 61.442 110.927 62.2996 111.26 63.2505C111.594 64.2014 112.032 64.9488 112.576 65.4928C113.123 66.0355 113.724 66.3809 114.378 66.529C115.036 66.6759 115.697 66.6328 116.362 66.3998C117.027 66.1668 117.568 65.7884 117.987 65.2645C118.409 64.7393 118.662 64.0945 118.748 63.3301C118.837 62.5644 118.715 61.7061 118.381 60.7552ZM125.823 64.3126L118.972 54.3832L120.323 53.9097L125.753 62.0495L125.86 62.0119L125.064 52.2487L126.565 51.7226L132.037 59.8474L132.144 59.8098L131.305 50.0615L132.656 49.588L133.502 61.6219L132.129 62.1029L126.639 54.2012L126.553 54.2313L127.196 63.8316L125.823 64.3126Z" fill="#161614"/>
<path d="M59.1579 82.1221L135.094 55.5131L135.455 56.5426L59.5186 83.1517L59.1579 82.1221Z" fill="#161614"/>
<defs>
<clipPath id="clip0_2311_3322">
<rect width="183.78" height="78.63" fill="white" transform="translate(0 60.7759) rotate(-19.3112)"/>
</clipPath>
<clipPath id="clip1_2311_3322">
<rect width="183.764" height="78.63" fill="white" transform="translate(0.00732422 60.7733) rotate(-19.3112)"/>
</clipPath>
</defs>
</svg>
