<svg width="179" height="101" viewBox="0 0 179 101" fill="none" xmlns="http://www.w3.org/2000/svg">
<mask id="mask0_2311_3264" style="mask-type:alpha" maskUnits="userSpaceOnUse" x="0" y="0" width="192" height="101">
<g clip-path="url(#clip0_2311_3264)">
<g clip-path="url(#clip1_2311_3264)">
<path d="M113.879 91.2743C124.908 92.6262 134.927 87.1474 138.221 78.6101C139.356 87.6903 147.756 95.4268 158.785 96.7787C171.468 98.3334 182.819 90.8595 184.14 80.0848C185.289 70.714 178.47 61.9368 168.332 58.7848C178.931 58.1748 187.668 51.3043 188.816 41.9335C190.137 31.1588 180.927 21.1644 168.244 19.6098C157.215 18.2579 147.196 23.7366 143.901 32.2737C142.766 23.1936 134.368 15.4573 123.339 14.1053C112.309 12.7533 102.289 18.232 98.9954 26.7693C97.8609 17.6892 89.4615 9.95273 78.4325 8.6008C67.4026 7.24877 57.3832 12.7275 54.0892 21.2647C52.9548 12.1846 44.5553 4.44818 33.5263 3.09626C20.8434 1.54161 9.49178 9.01549 8.17103 19.7902C7.02237 29.161 13.8407 37.9382 23.9789 41.0902C13.3796 41.7002 4.64315 48.5707 3.49449 57.9415C2.17374 68.7162 11.3841 78.7105 24.067 80.2652C35.096 81.6171 45.1154 76.1384 48.4094 67.6011C49.5438 76.6812 57.9433 84.4177 68.9732 85.7697C80.0022 87.1216 90.0216 81.6429 93.3155 73.1057C94.4491 82.1857 102.849 89.9222 113.879 91.2743Z" fill="#37B669"/>
</g>
</g>
</mask>
<g mask="url(#mask0_2311_3264)">
<rect x="9.57436" width="183.78" height="78.63" transform="rotate(6.98839 9.57436 0)" fill="#659DF5"/>
</g>
<path d="M30.4389 48.0809L28.9726 47.9012L34.6293 36.8711L36.0731 37.0481L38.8983 49.1179L37.432 48.9381L35.1723 38.7924L35.0821 38.7813L30.4389 48.0809ZM31.5333 43.6356L37.4436 44.3601L37.2915 45.6008L31.3812 44.8763L31.5333 43.6356ZM44.2616 49.7753L40.6973 49.3384L42.1131 37.7885L45.8352 38.2447C46.9556 38.3821 47.886 38.7308 48.6264 39.291C49.3673 39.8474 49.8973 40.5821 50.2166 41.4951C50.5364 42.4044 50.623 43.4569 50.4765 44.6525C50.329 45.8556 49.9877 46.8651 49.4526 47.6811C48.918 48.4933 48.2123 49.0823 47.3356 49.448C46.4593 49.81 45.4346 49.9191 44.2616 49.7753ZM42.248 48.2691L44.3234 48.5235C45.2784 48.6406 46.0924 48.5534 46.7654 48.2619C47.4385 47.9704 47.9708 47.5033 48.3626 46.8606C48.7543 46.2178 49.0077 45.4265 49.123 44.4866C49.2373 43.5542 49.1834 42.7328 48.9613 42.0225C48.7398 41.3084 48.3484 40.7338 47.7873 40.2986C47.2267 39.8597 46.4953 39.585 45.5929 39.4744L43.3596 39.2006L42.248 48.2691ZM53.4586 39.1792L55.6957 49.3222L55.831 49.3388L60.4517 40.0364L61.918 40.2161L56.2612 51.2462L54.8175 51.0692L51.9923 38.9995L53.4586 39.1792ZM62.3013 51.9866L63.717 40.4367L70.6876 41.2911L70.5355 42.5318L64.9636 41.8488L64.4852 45.7514L69.6962 46.3902L69.5441 47.6309L64.3331 46.9921L63.852 50.9173L69.5141 51.6114L69.362 52.8521L62.3013 51.9866ZM71.7927 53.15L73.2085 41.6001L77.1111 42.0785C78.0134 42.1891 78.7352 42.434 79.2764 42.8133C79.8181 43.1888 80.1953 43.6606 80.4081 44.2286C80.6209 44.7965 80.6855 45.4208 80.6021 46.1013C80.5187 46.7818 80.3056 47.3682 79.9629 47.8605C79.6201 48.3527 79.1427 48.714 78.5306 48.9443C77.919 49.1708 77.1657 49.2292 76.2709 49.1195L73.1127 48.7324L73.2676 47.4691L76.3806 47.8507C76.9972 47.9263 77.5046 47.8969 77.9027 47.7625C78.3045 47.6286 78.6103 47.4065 78.8201 47.0964C79.034 46.783 79.1694 46.3951 79.2261 45.9326C79.2827 45.4702 79.2458 45.0554 79.1153 44.6883C78.9847 44.3212 78.7411 44.0204 78.3844 43.7859C78.0282 43.5476 77.538 43.3902 76.9139 43.3137L74.455 43.0123L73.1913 53.3215L71.7927 53.15ZM77.8653 48.628L80.0717 54.1649L78.4474 53.9658L76.2862 48.4344L77.8653 48.628ZM82.5831 44.0086L82.7352 42.7679L91.3976 43.8297L91.2455 45.0704L87.6136 44.6252L86.3499 54.9344L84.9513 54.763L86.215 44.4538L82.5831 44.0086ZM94.9548 44.2658L93.539 55.8157L92.1404 55.6442L93.5562 44.0943L94.9548 44.2658ZM103.722 48.2712C103.724 47.6915 103.504 47.2142 103.061 46.8394C102.619 46.4645 102.048 46.2343 101.349 46.1486C100.837 46.0859 100.38 46.1138 99.9759 46.2322C99.5759 46.3511 99.251 46.5421 99.0012 46.8053C98.7551 47.069 98.6095 47.3851 98.5644 47.7536C98.5266 48.0619 98.5674 48.3359 98.6868 48.5757C98.8105 48.8122 98.9799 49.0181 99.195 49.1933C99.4106 49.3647 99.6405 49.5131 99.8846 49.6384C100.129 49.76 100.355 49.8621 100.563 49.9448L101.697 50.4044C101.988 50.5202 102.309 50.6703 102.661 50.8545C103.016 51.0393 103.348 51.2727 103.657 51.5548C103.97 51.8336 104.215 52.1727 104.391 52.5721C104.567 52.9715 104.622 53.4419 104.555 53.9833C104.479 54.6074 104.246 55.1513 103.857 55.6151C103.472 56.0792 102.95 56.4216 102.289 56.6421C101.632 56.8631 100.86 56.9192 99.9729 56.8104C99.1458 56.709 98.4459 56.4877 97.8733 56.1466C97.3045 55.8059 96.8764 55.3756 96.589 54.8558C96.3054 54.3363 96.1797 53.758 96.212 53.1209L97.6558 53.2978C97.6399 53.7386 97.7423 54.1175 97.9629 54.4346C98.1878 54.7483 98.4891 54.999 98.8668 55.1865C99.2488 55.3707 99.6691 55.4909 100.128 55.5471C100.662 55.6126 101.152 55.5849 101.598 55.464C102.044 55.3394 102.411 55.1362 102.697 54.8546C102.984 54.5692 103.153 54.2159 103.205 53.7948C103.252 53.4113 103.183 53.0862 102.998 52.8193C102.813 52.5524 102.555 52.3223 102.224 52.1291C101.893 51.9358 101.531 51.7579 101.139 51.5953L99.7674 51.0151C98.8969 50.645 98.2279 50.1871 97.7605 49.6414C97.2932 49.0956 97.1072 48.4336 97.2026 47.6553C97.2818 47.0086 97.5258 46.4661 97.9344 46.0277C98.3473 45.586 98.8671 45.2681 99.4939 45.074C100.125 44.8766 100.809 44.823 101.546 44.9134C102.29 45.0046 102.935 45.2192 103.482 45.5571C104.029 45.8913 104.443 46.3084 104.725 46.8086C105.011 47.3092 105.128 47.8521 105.075 48.4371L103.722 48.2712ZM106.471 57.4008L107.886 45.8509L114.857 46.7053L114.705 47.946L109.133 47.263L108.655 51.1657L113.866 51.8044L113.713 53.0451L108.503 52.4064L108.021 56.3315L113.684 57.0256L113.531 58.2663L106.471 57.4008ZM117.378 47.0143L119.047 47.219L121.797 57.2874L121.933 57.304L127.033 48.1978L128.702 48.4025L127.286 59.9524L125.978 59.792L127.054 51.0168L126.941 51.0029L122.256 59.3357L120.993 59.1809L118.459 49.9632L118.346 49.9494L117.27 58.7246L115.962 58.5643L117.378 47.0143ZM130.091 60.2961L131.507 48.7462L138.477 49.6007L138.325 50.8414L132.753 50.1584L132.275 54.061L137.486 54.6997L137.334 55.9404L132.123 55.3017L131.641 59.2269L137.304 59.9209L137.152 61.1616L130.091 60.2961ZM150.157 51.0323L148.741 62.5822L147.387 62.4163L142.205 52.5764L142.092 52.5625L140.981 61.631L139.582 61.4596L140.998 49.9097L142.351 50.0756L147.553 59.9409L147.666 59.9547L148.781 50.8637L150.157 51.0323ZM152.172 52.5387L152.324 51.298L160.986 52.3598L160.834 53.6005L157.202 53.1553L155.938 63.4645L154.54 63.2931L155.804 52.9839L152.172 52.5387Z" fill="#161614"/>
<path d="M29.2039 42.6517L160.975 58.804L160.842 59.8868L29.0712 43.7345L29.2039 42.6517Z" fill="#161614"/>
<defs>
<clipPath id="clip0_2311_3264">
<rect width="183.78" height="78.63" fill="white" transform="translate(9.57436) rotate(6.98839)"/>
</clipPath>
<clipPath id="clip1_2311_3264">
<rect width="183.764" height="78.63" fill="white" transform="translate(9.58205 0.000976562) rotate(6.98839)"/>
</clipPath>
</defs>
</svg>
