<svg width="190" height="105" viewBox="0 0 190 105" fill="none" xmlns="http://www.w3.org/2000/svg">
<mask id="mask0_2311_3330" style="mask-type:alpha" maskUnits="userSpaceOnUse" x="0" y="0" width="190" height="105">
<g clip-path="url(#clip0_2311_3330)">
<g clip-path="url(#clip1_2311_3330)">
<path d="M15.2382 75.5481C6.90873 74.0866 1.30784 66.3389 2.72842 58.243L10.3757 14.6613C11.7963 6.56548 19.7003 1.18748 28.0298 2.64906C36.3593 4.11064 41.9602 11.8583 40.5396 19.9542L32.8923 63.5359C31.4718 71.6317 23.5677 77.0097 15.2382 75.5481Z" fill="#37B669"/>
<path d="M44.5548 80.6924C36.2253 79.2308 30.6244 71.4831 32.045 63.3872L39.6923 19.8056C41.1129 11.7097 49.0169 6.33171 57.3464 7.79328C65.6759 9.25486 71.2768 17.0026 69.8562 25.0984L62.2089 68.6801C60.7883 76.7759 52.8843 82.1539 44.5548 80.6924Z" fill="#37B669"/>
<path d="M73.8722 85.8367C65.5427 84.3751 59.9418 76.6274 61.3624 68.5315L69.0097 24.9498C70.4303 16.854 78.3343 11.476 86.6638 12.9376C94.9933 14.3991 100.594 22.1469 99.1736 30.2427L91.5263 73.8244C90.1049 81.9201 82.2008 87.2981 73.8722 85.8367Z" fill="#37B669"/>
<path d="M103.189 90.9808C94.8593 89.5192 89.2584 81.7715 90.679 73.6757L98.3263 30.094C99.7469 21.9982 107.651 16.6202 115.98 18.0817C124.31 19.5433 129.911 27.291 128.49 35.3869L120.843 78.9685C119.422 87.0644 111.518 92.4424 103.189 90.9808Z" fill="#37B669"/>
<path d="M132.505 96.125C124.176 94.6634 118.575 86.9157 119.996 78.8198L127.643 35.2382C129.063 27.1423 136.967 21.7643 145.297 23.2259C153.626 24.6875 159.227 32.4352 157.807 40.531L150.159 84.1127C148.739 92.2086 140.835 97.5866 132.505 96.125Z" fill="#37B669"/>
<path d="M161.823 101.269C153.493 99.8078 147.892 92.0601 149.313 83.9642L156.96 40.3826C158.381 32.2867 166.285 26.9087 174.614 28.3703C182.944 29.8319 188.545 37.5796 187.124 45.6755L179.477 89.2571C178.056 97.3528 170.151 102.731 161.823 101.269Z" fill="#37B669"/>
</g>
</g>
</mask>
<g mask="url(#mask0_2311_3330)">
<rect x="12.933" width="179.65" height="74.77" transform="rotate(9.95239 12.933 0)" fill="#659DF5"/>
</g>
<path d="M54.4639 39.8011L55.8517 40.0446L54.5202 47.6332C54.3827 48.4167 54.0753 49.0839 53.5979 49.6346C53.1249 50.1823 52.5234 50.5748 51.7934 50.8121C51.064 51.0456 50.2498 51.0835 49.3506 50.9257C48.4515 50.7679 47.6988 50.4551 47.0925 49.9872C46.4868 49.5156 46.053 48.9414 45.791 48.2648C45.5334 47.585 45.4733 46.8534 45.6108 46.0699L46.9424 38.4813L48.3303 38.7248L47.0184 46.2015C46.9202 46.7612 46.9559 47.2808 47.1255 47.7606C47.2958 48.2365 47.5866 48.6395 47.9979 48.9693C48.4136 49.2961 48.9404 49.5154 49.5784 49.6274C50.2164 49.7393 50.7865 49.7124 51.2886 49.5467C51.7913 49.3773 52.2019 49.0974 52.5204 48.7072C52.8432 48.3139 53.0537 47.8374 53.1519 47.2778L54.4639 39.8011ZM60.0112 40.7745L58.0001 52.2358L56.6122 51.9922L58.6233 40.531L60.0112 40.7745ZM70.3154 42.5826L71.7033 42.8261L70.3717 50.4147C70.2343 51.1982 69.9268 51.8653 69.4495 52.4161C68.9765 52.9638 68.375 53.3563 67.6449 53.5936C66.9156 53.8271 66.1013 53.8649 65.2022 53.7072C64.303 53.5494 63.5503 53.2366 62.944 52.7687C62.3384 52.2971 61.9046 51.7229 61.6426 51.0462C61.385 50.3665 61.3249 49.6349 61.4624 48.8514L62.794 41.2628L64.1819 41.5063L62.8699 48.983C62.7717 49.5426 62.8074 50.0623 62.9771 50.542C63.1474 51.018 63.4382 51.4209 63.8495 51.7508C64.2652 52.0775 64.792 52.2969 65.43 52.4088C66.068 52.5208 66.638 52.4939 67.1401 52.3282C67.6429 52.1587 68.0535 51.8789 68.3719 51.4887C68.6948 51.0954 68.9053 50.6189 69.0035 50.0593L70.3154 42.5826ZM75.1464 43.4303L77.2646 48.7168L77.3542 48.7325L81.1457 44.483L82.7798 44.7697L78.1702 49.8679L80.7687 56.231L79.1346 55.9442L77.0007 50.7472L76.9111 50.7315L73.1353 54.8915L71.5012 54.6048L76.2003 49.5223L73.5123 43.1435L75.1464 43.4303ZM90.5441 57.9463L87.0072 57.3256L89.0183 45.8644L92.7119 46.5125C93.8237 46.7076 94.7348 47.104 95.4452 47.7017C96.1563 48.2956 96.6477 49.0568 96.9193 49.9851C97.1917 50.9097 97.2237 51.9652 97.0156 53.1517C96.8061 54.3455 96.4131 55.3361 95.8365 56.1233C95.2606 56.9068 94.5254 57.4584 93.6309 57.7784C92.737 58.0945 91.7081 58.1505 90.5441 57.9463ZM88.6111 56.338L90.6706 56.6994C91.6182 56.8656 92.4356 56.8206 93.1229 56.5643C93.8101 56.308 94.3659 55.8691 94.7903 55.2475C95.2147 54.6259 95.5088 53.8487 95.6724 52.916C95.8348 51.9907 95.8235 51.1677 95.6384 50.4468C95.4541 49.7222 95.093 49.1282 94.5552 48.6646C94.018 48.1973 93.3017 47.8851 92.4063 47.728L90.1902 47.3391L88.6111 56.338ZM98.3341 59.3132L100.345 47.8519L107.262 49.0657L107.046 50.2968L101.517 49.3266L100.838 53.1993L106.009 54.1067L105.793 55.3378L100.622 54.4305L99.9381 58.3255L105.557 59.3114L105.341 60.5426L98.3341 59.3132ZM115.529 53.4697C115.561 52.8909 115.366 52.4028 114.944 52.0056C114.521 51.6085 113.963 51.349 113.269 51.2272C112.761 51.1382 112.303 51.1424 111.894 51.2397C111.488 51.3378 111.154 51.5118 110.891 51.7617C110.631 52.0124 110.47 52.3205 110.405 52.6861C110.352 52.992 110.378 53.2678 110.485 53.5135C110.597 53.7561 110.755 53.9704 110.961 54.1565C111.167 54.3388 111.389 54.4989 111.626 54.6367C111.864 54.7708 112.085 54.8844 112.288 54.9777L113.397 55.4954C113.682 55.6261 113.995 55.7925 114.336 55.9947C114.681 56.1976 115.001 56.4479 115.294 56.7456C115.593 57.0402 115.82 57.3915 115.975 57.7995C116.13 58.2074 116.161 58.6801 116.066 59.2173C115.958 59.8366 115.697 60.3678 115.285 60.8108C114.876 61.2544 114.337 61.5693 113.666 61.7553C112.998 61.942 112.224 61.9582 111.344 61.8037C110.523 61.6596 109.836 61.4025 109.281 61.0322C108.731 60.6625 108.326 60.2107 108.065 59.6767C107.809 59.1433 107.714 58.5592 107.779 57.9246L109.211 58.176C109.173 58.6153 109.255 58.999 109.459 59.3271C109.668 59.6521 109.956 59.9179 110.323 60.1247C110.695 60.3284 111.109 60.4702 111.564 60.5501C112.094 60.643 112.584 60.6407 113.036 60.5431C113.488 60.4417 113.865 60.2578 114.165 59.9913C114.467 59.7211 114.654 59.3771 114.727 58.9592C114.794 58.5787 114.742 58.2504 114.571 57.9743C114.4 57.6982 114.155 57.4551 113.834 57.245C113.513 57.0349 113.161 56.8385 112.778 56.6558L111.438 56.0055C110.588 55.5909 109.944 55.099 109.505 54.5298C109.067 53.9606 108.915 53.2899 109.051 52.5176C109.163 51.8759 109.435 51.3467 109.866 50.93C110.301 50.5103 110.836 50.2197 111.472 50.0582C112.113 49.8937 112.798 49.8756 113.53 50.0039C114.268 50.1335 114.902 50.3812 115.43 50.7469C115.959 51.1089 116.351 51.5469 116.607 52.061C116.866 52.5757 116.955 53.1239 116.872 53.7054L115.529 53.4697ZM121.201 51.5115L119.19 62.9728L117.802 62.7293L119.813 51.268L121.201 51.5115ZM131.19 56.9563C131.133 56.5578 131.03 56.1917 130.881 55.8579C130.737 55.521 130.545 55.222 130.306 54.9609C130.071 54.7004 129.79 54.4838 129.463 54.311C129.135 54.1382 128.764 54.0155 128.35 53.9428C127.671 53.8236 127.023 53.8906 126.406 54.1438C125.788 54.397 125.255 54.8361 124.807 55.4613C124.359 56.0864 124.048 56.8952 123.874 57.8876C123.7 58.88 123.719 59.7467 123.931 60.4877C124.143 61.2287 124.502 61.8244 125.008 62.2746C125.513 62.7248 126.121 63.0121 126.829 63.1365C127.486 63.2517 128.089 63.2132 128.638 63.0211C129.191 62.826 129.653 62.4955 130.023 62.0298C130.398 61.5609 130.647 60.9758 130.77 60.2744L131.179 60.4386L127.732 59.8337L127.948 58.6025L132.313 59.3684L132.097 60.5996C131.932 61.5435 131.586 62.329 131.061 62.9559C130.539 63.5836 129.892 64.0276 129.119 64.2882C128.351 64.5457 127.512 64.5945 126.602 64.4348C125.587 64.2567 124.737 63.8615 124.052 63.2491C123.371 62.6373 122.893 61.8536 122.619 60.8978C122.348 59.9427 122.319 58.8607 122.531 57.6519C122.69 56.7453 122.954 55.9514 123.324 55.2701C123.698 54.5858 124.153 54.0274 124.691 53.5948C125.228 53.1622 125.827 52.8635 126.486 52.6985C127.146 52.5335 127.843 52.5155 128.578 52.6444C129.183 52.7505 129.73 52.9408 130.22 53.2152C130.715 53.4866 131.138 53.8243 131.49 54.2284C131.847 54.6294 132.123 55.0835 132.318 55.5909C132.515 56.0945 132.616 56.6334 132.623 57.2076L131.19 56.9563ZM144.784 55.6496L142.773 67.1109L141.43 66.8752L136.764 56.7804L136.652 56.7608L135.073 65.7597L133.685 65.5161L135.696 54.0549L137.039 54.2906L141.724 64.4117L141.836 64.4313L143.419 55.41L144.784 55.6496Z" fill="white"/>
<path d="M44.4488 44.5392L145.066 62.1946L144.878 63.2691L44.2603 45.6137L44.4488 44.5392Z" fill="white"/>
<defs>
<clipPath id="clip0_2311_3330">
<rect width="179.65" height="74.77" fill="white" transform="translate(12.933) rotate(9.95239)"/>
</clipPath>
<clipPath id="clip1_2311_3330">
<rect width="179.62" height="74.77" fill="white" transform="translate(12.9479 0.00262451) rotate(9.95239)"/>
</clipPath>
</defs>
</svg>
