<svg width="184" height="79" viewBox="0 0 184 79" fill="none" xmlns="http://www.w3.org/2000/svg">
<mask id="mask0_2311_3095" style="mask-type:alpha" maskUnits="userSpaceOnUse" x="0" y="0" width="184" height="79">
<g clip-path="url(#clip0_2311_3095)">
<g clip-path="url(#clip1_2311_3095)">
<path d="M114.635 77.9056C125.747 77.9056 135.024 71.2485 137.255 62.3739C139.487 71.2485 148.765 77.9056 159.877 77.9056C172.655 77.9056 183.012 69.1061 183.012 58.2507C183.012 48.8098 175.177 40.9274 164.731 39.0323C175.177 37.1372 183.012 29.2548 183.012 19.8139C183.012 8.95855 172.655 0.159058 159.877 0.159058C148.765 0.159058 139.487 6.8161 137.255 15.6907C135.024 6.8161 125.747 0.159058 114.635 0.159058C103.523 0.159058 94.2445 6.8161 92.0137 15.6907C89.7829 6.8161 80.5046 0.159058 69.393 0.159058C58.2805 0.159058 49.0022 6.8161 46.7714 15.6907C44.5406 6.8161 35.2623 0.159058 24.1507 0.159058C11.3729 0.159058 1.01492 8.95855 1.01492 19.8139C1.01492 29.2548 8.85054 37.1372 19.2968 39.0323C8.85054 40.9274 1.01492 48.8098 1.01492 58.2507C1.01492 69.1061 11.3729 77.9056 24.1507 77.9056C35.2623 77.9056 44.5406 71.2485 46.7714 62.3739C49.0022 71.2485 58.2805 77.9056 69.393 77.9056C80.5046 77.9056 89.7829 71.2485 92.0137 62.3739C94.2436 71.2485 103.523 77.9056 114.635 77.9056Z" fill="#37B669"/>
</g>
</g>
</mask>
<g mask="url(#mask0_2311_3095)">
<rect width="183.78" height="78.63" fill="#F4FF77"/>
</g>
<path d="M53.3821 35.9827C53.3139 35.4069 53.0374 34.96 52.5526 34.6418C52.0677 34.3236 51.473 34.1645 50.7685 34.1645C50.2533 34.1645 49.8026 34.2478 49.4162 34.4145C49.0336 34.5812 48.7344 34.8103 48.5185 35.102C48.3063 35.3937 48.2003 35.7251 48.2003 36.0963C48.2003 36.4069 48.2741 36.674 48.4219 36.8975C48.5734 37.1172 48.7666 37.3009 49.0014 37.4486C49.2363 37.5925 49.4825 37.7119 49.7401 37.8066C49.9976 37.8975 50.2344 37.9713 50.4503 38.0281L51.6321 38.3463C51.9351 38.4259 52.2723 38.5357 52.6435 38.6759C53.0185 38.816 53.3764 39.0073 53.7173 39.2497C54.062 39.4884 54.3461 39.7952 54.5696 40.1702C54.7931 40.5452 54.9048 41.0054 54.9048 41.5509C54.9048 42.1797 54.7401 42.7478 54.4105 43.2554C54.0848 43.763 53.6075 44.1664 52.9787 44.4656C52.3537 44.7649 51.5942 44.9145 50.7003 44.9145C49.867 44.9145 49.1454 44.78 48.5355 44.5111C47.9295 44.2422 47.4522 43.8672 47.1037 43.3861C46.759 42.905 46.5639 42.3463 46.5185 41.71H47.973C48.0109 42.1494 48.1586 42.513 48.4162 42.8009C48.6776 43.085 49.0071 43.2971 49.4048 43.4372C49.8063 43.5736 50.2382 43.6418 50.7003 43.6418C51.2382 43.6418 51.7211 43.5547 52.1491 43.3804C52.5772 43.2024 52.9162 42.9562 53.1662 42.6418C53.4162 42.3236 53.5412 41.9524 53.5412 41.5281C53.5412 41.1418 53.4332 40.8274 53.2173 40.585C53.0014 40.3425 52.7173 40.1456 52.3651 39.9941C52.0128 39.8425 51.6321 39.71 51.223 39.5963L49.7912 39.1872C48.8821 38.9259 48.1624 38.5528 47.6321 38.0679C47.1018 37.5831 46.8366 36.9486 46.8366 36.1645C46.8366 35.513 47.0128 34.9448 47.3651 34.46C47.7211 33.9713 48.1984 33.5925 48.7969 33.3236C49.3991 33.0509 50.0715 32.9145 50.8139 32.9145C51.5639 32.9145 52.2306 33.049 52.8139 33.3179C53.3973 33.5831 53.8594 33.9467 54.2003 34.4088C54.545 34.8709 54.7268 35.3956 54.7457 35.9827H53.3821ZM56.5852 34.3236V33.0736H65.3125V34.3236H61.6534V44.71H60.2443V34.3236H56.5852ZM67.4872 44.71V33.0736H71.419C72.3281 33.0736 73.0743 33.2289 73.6577 33.5395C74.241 33.8463 74.6728 34.2687 74.9531 34.8066C75.2334 35.3444 75.3736 35.9562 75.3736 36.6418C75.3736 37.3274 75.2334 37.9353 74.9531 38.4656C74.6728 38.9959 74.2429 39.4126 73.6634 39.7156C73.0838 40.0149 72.3433 40.1645 71.4418 40.1645H68.2599V38.8918H71.3963C72.0175 38.8918 72.5175 38.8009 72.8963 38.6191C73.2789 38.4372 73.5554 38.1797 73.7259 37.8463C73.9001 37.5092 73.9872 37.1077 73.9872 36.6418C73.9872 36.1759 73.9001 35.7687 73.7259 35.4202C73.5516 35.0717 73.2732 34.8028 72.8906 34.6134C72.508 34.4202 72.0024 34.3236 71.3736 34.3236H68.8963V44.71H67.4872ZM72.9645 39.4827L75.8281 44.71H74.1918L71.3736 39.4827H72.9645ZM78.1989 44.71H76.7216L80.9943 33.0736H82.4489L86.7216 44.71H85.2443L81.767 34.9145H81.6761L78.1989 44.71ZM78.7443 40.1645H84.6989V41.4145H78.7443V40.1645ZM86.5384 34.3236V33.0736H95.2656V34.3236H91.6065V44.71H90.1974V34.3236H86.5384ZM97.4403 44.71V33.0736H104.463V34.3236H98.8494V38.2554H104.099V39.5054H98.8494V43.46H104.554V44.71H97.4403ZM114.957 36.71C114.832 36.3274 114.668 35.9846 114.463 35.6816C114.262 35.3747 114.022 35.1134 113.741 34.8975C113.465 34.6816 113.151 34.5168 112.798 34.4031C112.446 34.2895 112.06 34.2327 111.639 34.2327C110.95 34.2327 110.323 34.4107 109.759 34.7668C109.194 35.1228 108.745 35.6475 108.412 36.3406C108.079 37.0338 107.912 37.8842 107.912 38.8918C107.912 39.8994 108.08 40.7497 108.418 41.4429C108.755 42.1361 109.211 42.6607 109.787 43.0168C110.363 43.3728 111.01 43.5509 111.73 43.5509C112.397 43.5509 112.984 43.4088 113.491 43.1247C114.003 42.8369 114.401 42.4316 114.685 41.9088C114.973 41.3823 115.116 40.763 115.116 40.0509L115.548 40.1418H112.048V38.8918H116.48V40.1418C116.48 41.1001 116.276 41.9334 115.866 42.6418C115.461 43.3501 114.901 43.8994 114.185 44.2895C113.473 44.6759 112.654 44.8691 111.73 44.8691C110.7 44.8691 109.795 44.6266 109.014 44.1418C108.238 43.6569 107.632 42.9675 107.196 42.0736C106.764 41.1797 106.548 40.1191 106.548 38.8918C106.548 37.9713 106.671 37.1437 106.918 36.4088C107.168 35.6702 107.52 35.0414 107.974 34.5225C108.429 34.0035 108.967 33.6058 109.588 33.3293C110.209 33.0528 110.893 32.9145 111.639 32.9145C112.253 32.9145 112.825 33.0073 113.355 33.1929C113.889 33.3747 114.365 33.6342 114.781 33.9713C115.202 34.3047 115.552 34.7043 115.832 35.1702C116.113 35.6323 116.306 36.1456 116.412 36.71H114.957ZM117.534 33.0736H119.148L122.375 38.5054H122.511L125.739 33.0736H127.352L123.148 39.9145V44.71H121.739V39.9145L117.534 33.0736Z" fill="#161614"/>
<path d="M45.6094 39.4713H127.761V40.5622H45.6094V39.4713Z" fill="#161614"/>
<defs>
<clipPath id="clip0_2311_3095">
<rect width="183.78" height="78.63" fill="white"/>
</clipPath>
<clipPath id="clip1_2311_3095">
<rect width="183.764" height="78.63" fill="white" transform="translate(0.00775146)"/>
</clipPath>
</defs>
</svg>
