<svg width="197" height="101" viewBox="0 0 197 101" fill="none" xmlns="http://www.w3.org/2000/svg">
<mask id="mask0_2311_3272" style="mask-type:alpha" maskUnits="userSpaceOnUse" x="0" y="0" width="197" height="119">
<g clip-path="url(#clip0_2311_3272)">
<g clip-path="url(#clip1_2311_3272)">
<path d="M111.774 102.07C122.591 104.613 133.145 100.255 137.347 92.1265C137.489 101.276 144.998 109.88 155.815 112.422C168.254 115.346 180.35 109.151 182.834 98.5832C184.995 89.3928 179.171 79.9265 169.435 75.6913C180.038 76.2369 189.469 70.3566 191.63 61.1662C194.114 50.5989 186.044 39.6627 173.605 36.7388C162.788 34.1962 152.233 38.5535 148.03 46.6819C147.889 37.5323 140.381 28.929 129.564 26.3864C118.747 23.8436 108.191 28.2009 103.989 36.3295C103.848 27.1799 96.3391 18.5764 85.5223 16.0338C74.7047 13.4909 64.1492 17.8482 59.9469 25.9769C59.806 16.8273 52.2972 8.22377 41.4804 5.68115C29.0416 2.75726 16.9449 8.9531 14.461 19.5204C12.3006 28.7108 18.1246 38.1771 27.8601 42.4123C17.2574 41.8667 7.82593 47.747 5.66561 56.9374C3.18162 67.5048 11.2512 78.4409 23.69 81.3648C34.5067 83.9075 45.0622 79.5502 49.2645 71.4215C49.4054 80.5711 56.9143 89.1746 67.7319 91.7175C78.5486 94.2601 89.1041 89.9028 93.3064 81.7741C93.4464 90.9235 100.956 99.5273 111.774 102.07Z" fill="#37B669"/>
</g>
</g>
</mask>
<g mask="url(#mask0_2311_3272)">
<rect x="18.0069" width="183.78" height="78.63" transform="rotate(13.228 18.0069 0)" fill="#FBF8E9"/>
</g>
<path d="M53.547 54.2828L56.2097 42.9551L63.0019 44.5517L62.7158 45.7685L57.2954 44.4944L56.3957 48.3219L61.3073 49.4764L61.0212 50.6933L56.1097 49.5387L54.9187 54.6052L53.547 54.2828ZM62.6885 56.4316L65.3512 45.1039L69.1787 46.0037C70.0637 46.2117 70.7545 46.5336 71.2513 46.9695C71.749 47.4016 72.0727 47.9116 72.2225 48.4993C72.3722 49.0871 72.3687 49.7146 72.2118 50.3821C72.0549 51.0495 71.7794 51.6092 71.3852 52.0613C70.9909 52.5134 70.4771 52.8207 69.8436 52.983C69.2109 53.1417 68.4558 53.1179 67.5782 52.9116L64.4808 52.1835L64.7721 50.9446L67.8252 51.6623C68.4299 51.8044 68.9375 51.8303 69.3478 51.74C69.7618 51.6506 70.09 51.4631 70.3322 51.1776C70.5789 50.8893 70.7556 50.5184 70.8622 50.0648C70.9688 49.6113 70.9772 49.195 70.8873 48.8158C70.7975 48.4367 70.588 48.1112 70.2589 47.8393C69.9307 47.5637 69.4605 47.354 68.8484 47.2101L66.4369 46.6432L64.0602 56.754L62.6885 56.4316ZM69.2166 52.5963L70.8081 58.3402L69.2151 57.9657L67.6679 52.2323L69.2166 52.5963ZM73.1159 58.8827L71.6778 58.5446L78.4999 48.1947L79.9159 48.5276L81.4125 60.8329L79.9744 60.4949L78.8309 50.1636L78.7424 50.1428L73.1159 58.8827ZM74.687 54.5826L80.4836 55.9452L80.1975 57.162L74.401 55.7995L74.687 54.5826ZM85.8396 49.92L87.4768 50.3049L89.1162 60.6126L89.2489 60.6438L95.3088 52.1459L96.946 52.5307L94.2833 63.8583L93.0001 63.5567L95.0231 54.9504L94.9125 54.9244L89.3496 62.6986L88.1106 62.4074L86.5938 52.9689L86.4832 52.9429L84.4601 61.5493L83.1769 61.2476L85.8396 49.92ZM97.0336 64.5048L99.6963 53.1772L106.533 54.7842L106.247 56.001L100.782 54.7165L99.8823 58.544L104.993 59.7453L104.707 60.9622L99.5963 59.7608L98.6914 63.6104L104.245 64.9158L103.959 66.1326L97.0336 64.5048ZM106.342 66.693L109.005 55.3654L112.833 56.2651C113.718 56.4731 114.408 56.795 114.905 57.2309C115.403 57.663 115.727 58.173 115.876 58.7607C116.026 59.3485 116.023 59.9761 115.866 60.6435C115.709 61.3109 115.433 61.8707 115.039 62.3227C114.645 62.7748 114.131 63.0821 113.498 63.2444C112.865 63.4031 112.11 63.3793 111.232 63.173L108.135 62.445L108.426 61.206L111.479 61.9237C112.084 62.0658 112.591 62.0917 113.002 62.0014C113.416 61.912 113.744 61.7245 113.986 61.439C114.233 61.1507 114.41 60.7798 114.516 60.3262C114.623 59.8727 114.631 59.4564 114.541 59.0773C114.451 58.6982 114.242 58.3726 113.913 58.1007C113.585 57.8251 113.114 57.6154 112.502 57.4715L110.091 56.9046L107.714 67.0154L106.342 66.693ZM112.87 62.8578L114.462 68.6016L112.869 68.2272L111.322 62.4937L112.87 62.8578ZM124.181 70.8863L120.686 70.0646L123.349 58.737L126.999 59.5951C128.098 59.8534 128.985 60.3012 129.66 60.9385C130.336 61.5721 130.783 62.3601 131.001 63.3024C131.22 64.2411 131.192 65.2967 130.916 66.4693C130.639 67.6493 130.19 68.6157 129.569 69.3687C128.95 70.118 128.184 70.6268 127.273 70.895C126.362 71.1596 125.332 71.1567 124.181 70.8863ZM122.344 69.1702L124.379 69.6487C125.316 69.8688 126.134 69.8706 126.835 69.654C127.536 69.4374 128.116 69.0309 128.575 68.4345C129.034 67.8382 129.372 67.0791 129.589 66.1573C129.804 65.2428 129.84 64.4204 129.696 63.6902C129.553 62.9563 129.227 62.3425 128.716 61.849C128.207 61.3518 127.509 60.9991 126.625 60.7911L124.434 60.2762L122.344 69.1702ZM131.881 72.6961L134.543 61.3685L141.38 62.9755L141.094 64.1923L135.629 62.9077L134.729 66.7352L139.84 67.9366L139.554 69.1534L134.443 67.9521L133.538 71.8017L139.092 73.107L138.806 74.3239L131.881 72.6961ZM144.317 63.6658L145.438 73.9919L145.571 74.0231L151.175 65.278L152.613 65.6161L145.791 75.966L144.375 75.6331L142.879 63.3278L144.317 63.6658Z" fill="#161614"/>
<path d="M53.374 48.8607L151.548 71.9376L151.298 72.9996L53.1244 49.9226L53.374 48.8607Z" fill="#161614"/>
<defs>
<clipPath id="clip0_2311_3272">
<rect width="183.78" height="78.63" fill="white" transform="translate(18.0069) rotate(13.228)"/>
</clipPath>
<clipPath id="clip1_2311_3272">
<rect width="183.764" height="78.63" fill="white" transform="translate(18.0145 0.00183105) rotate(13.228)"/>
</clipPath>
</defs>
</svg>
