<svg width="200" height="154" viewBox="0 0 200 154" fill="none" xmlns="http://www.w3.org/2000/svg">
<mask id="mask0_2311_3343" style="mask-type:alpha" maskUnits="userSpaceOnUse" x="0" y="0" width="200" height="154">
<g clip-path="url(#clip0_2311_3343)">
<g clip-path="url(#clip1_2311_3343)">
<path d="M102.619 121.299C112.532 126.32 123.816 124.574 129.816 117.665C127.797 126.591 133.066 136.722 142.978 141.743C154.377 147.517 167.593 144.348 172.499 134.664C176.765 126.242 173.337 115.67 164.874 109.258C175.05 112.288 185.601 108.797 189.868 100.375C194.773 90.6916 189.509 78.1612 178.11 72.3871C168.198 67.366 156.913 69.1119 150.912 76.0203C152.932 67.0954 147.664 56.9645 137.751 51.9434C127.838 46.9219 116.553 48.6678 110.553 55.5765C112.573 46.6517 107.304 36.5203 97.3918 31.4992C87.4786 26.4777 76.1934 28.2236 70.1931 35.1324C72.2134 26.2075 66.9445 16.0762 57.0322 11.0551C45.6333 5.28103 32.4169 8.4503 27.5116 18.1341C23.2454 26.5561 26.6735 37.1287 35.136 43.5397C24.9608 40.5098 14.4089 44.0007 10.1427 52.4228C5.23737 62.1066 10.5012 74.637 21.9 80.411C31.8123 85.4322 43.0975 83.6863 49.0979 76.7775C47.0776 85.7024 52.3464 95.8337 62.2596 100.855C72.172 105.876 83.4572 104.13 89.4575 97.2216C87.4365 106.146 92.7061 116.278 102.619 121.299Z" fill="#37B669"/>
</g>
</g>
</mask>
<g mask="url(#mask0_2311_3343)">
<rect x="35.5596" width="183.78" height="78.63" transform="rotate(26.8644 35.5596 0)" fill="#FE99B6"/>
</g>
<path d="M54.5975 47.0115L49.3393 57.3921L48.0822 56.7553L53.3405 46.3748L54.5975 47.0115ZM51.8596 58.6688L57.1179 48.2882L58.3749 48.925L53.6815 58.1904L58.5068 60.6347L57.942 61.7498L51.8596 58.6688ZM59.8883 62.7357L65.1466 52.3552L66.4036 52.9919L61.7102 62.2574L66.5355 64.7016L65.9707 65.8167L59.8883 62.7357ZM79.9875 59.8728L81.2445 60.5096L77.763 67.3826C77.4036 68.0922 76.9153 68.6411 76.2984 69.0292C75.6865 69.4156 74.9969 69.6161 74.2294 69.6307C73.4636 69.642 72.6736 69.4414 71.8592 69.0288C71.0449 68.6163 70.4157 68.0981 69.9718 67.474C69.5295 66.8466 69.2815 66.1711 69.2277 65.4475C69.1789 64.7222 69.3343 64.0048 69.6938 63.2952L73.1753 56.4221L74.4323 57.0588L71.0021 63.8305C70.7454 64.3374 70.6284 64.845 70.6511 65.3533C70.6756 65.8582 70.8366 66.3283 71.1342 66.7635C71.4368 67.1971 71.8771 67.5602 72.4549 67.8529C73.0327 68.1456 73.5859 68.2857 74.1145 68.2732C74.6448 68.2574 75.1191 68.1091 75.5373 67.8284C75.9606 67.546 76.3006 67.1514 76.5573 66.6445L79.9875 59.8728ZM88.1171 67.2519C88.3164 66.7074 88.2717 66.1838 87.983 65.6808C87.6942 65.1779 87.2356 64.7672 86.6071 64.4489C86.1476 64.2161 85.7078 64.0867 85.2878 64.0608C84.8712 64.0366 84.5007 64.1058 84.1763 64.2684C83.8553 64.4328 83.6109 64.6805 83.4431 65.0117C83.3028 65.2888 83.248 65.5604 83.2788 65.8265C83.3147 66.0909 83.404 66.3421 83.5467 66.58C83.6912 66.8146 83.8569 67.0323 84.0439 67.2331C84.2326 67.4306 84.4104 67.6035 84.5774 67.7517L85.4879 68.5696C85.7222 68.7775 85.9733 69.0279 86.2412 69.3206C86.5124 69.6151 86.7452 69.9475 86.9398 70.3178C87.1395 70.6865 87.2543 71.0885 87.2842 71.5241C87.3141 71.9596 87.2058 72.4206 86.9593 72.9072C86.6752 73.4681 86.2714 73.9005 85.7481 74.2044C85.2281 74.51 84.6201 74.6542 83.9239 74.637C83.2311 74.6216 82.486 74.4118 81.6886 74.0079C80.9452 73.6313 80.3622 73.1853 79.9397 72.6698C79.5206 72.156 79.2643 71.6058 79.1708 71.0192C79.0807 70.4343 79.1591 69.8477 79.4061 69.2595L80.7037 69.9168C80.5389 70.3259 80.5064 70.717 80.6061 71.0902C80.7109 71.4618 80.909 71.7999 81.2005 72.1047C81.497 72.4077 81.8514 72.6637 82.2637 72.8725C82.7435 73.1156 83.2137 73.2561 83.6743 73.2941C84.1366 73.3287 84.5503 73.2622 84.9154 73.0947C85.2822 72.9239 85.5614 72.6492 85.7531 72.2707C85.9277 71.9261 85.9735 71.5968 85.8904 71.283C85.8073 70.9692 85.6429 70.6651 85.3971 70.3707C85.1513 70.0764 84.8717 69.7861 84.5581 69.4999L83.4656 68.4879C82.7728 67.844 82.2993 67.1859 82.0454 66.5137C81.7914 65.8416 81.8415 65.1558 82.1959 64.4563C82.4903 63.8751 82.9041 63.4478 83.4375 63.1745C83.9759 62.8995 84.5729 62.7772 85.2283 62.8078C85.8888 62.8366 86.5502 63.0188 87.2125 63.3543C87.8816 63.6932 88.4155 64.1144 88.8144 64.6179C89.2149 65.1181 89.4629 65.6513 89.5582 66.2176C89.6568 66.7856 89.582 67.3358 89.3335 67.8681L88.1171 67.2519ZM91.7242 67.2193L92.2891 66.1042L100.074 70.0479L99.5096 71.163L96.2454 69.5095L91.552 78.7749L90.295 78.1382L94.9884 68.8727L91.7242 67.2193ZM96.7562 81.4111L102.015 71.0306L105.522 72.8073C106.333 73.2181 106.928 73.6938 107.308 74.2345C107.69 74.7718 107.885 75.3437 107.892 75.9502C107.899 76.5567 107.747 77.1658 107.437 77.7774C107.128 78.389 106.728 78.868 106.238 79.2144C105.748 79.5608 105.177 79.7382 104.523 79.7467C103.87 79.7517 103.142 79.5506 102.338 79.1432L99.4996 77.7054L100.075 76.57L102.873 77.9873C103.427 78.268 103.914 78.4128 104.334 78.4218C104.757 78.4325 105.12 78.3277 105.423 78.1073C105.731 77.8853 105.99 77.5665 106.201 77.1509C106.411 76.7353 106.517 76.3326 106.519 75.943C106.522 75.5534 106.395 75.1877 106.139 74.8459C105.885 74.5007 105.478 74.186 104.917 73.9018L102.707 72.7824L98.0133 82.0479L96.7562 81.4111ZM104.005 79.2231L104.197 85.1802L102.737 84.4408L102.585 78.5042L104.005 79.2231ZM106.312 86.2515L104.994 85.584L114.064 77.1342L115.361 77.7915L113.915 90.1028L112.597 89.4352L113.921 79.1256L113.84 79.0845L106.312 86.2515ZM108.852 82.4431L114.164 85.1338L113.6 86.2489L108.288 83.5582L108.852 82.4431ZM118.445 80.7545L119.01 79.6394L126.795 83.5831L126.23 84.6982L122.966 83.0447L118.273 92.3102L117.016 91.6734L121.709 82.408L118.445 80.7545ZM129.992 85.2026L124.734 95.5831L123.477 94.9464L128.735 84.5658L129.992 85.2026ZM138.642 96.1062C138.087 97.201 137.41 98.047 136.611 98.6442C135.812 99.2414 134.958 99.5817 134.049 99.665C133.141 99.7484 132.244 99.5658 131.359 99.1174C130.474 98.6689 129.796 98.0538 129.325 97.2721C128.855 96.4904 128.624 95.6007 128.633 94.603C128.642 93.6052 128.923 92.559 129.478 91.4641C130.032 90.3693 130.709 89.5233 131.509 88.9261C132.308 88.3289 133.162 87.9886 134.07 87.9053C134.979 87.8219 135.876 88.0045 136.761 88.453C137.646 88.9014 138.324 89.5165 138.794 90.2982C139.264 91.0799 139.495 91.9696 139.487 92.9674C139.478 93.9651 139.196 95.0114 138.642 96.1062ZM137.425 95.49C137.881 94.5911 138.115 93.7564 138.127 92.9857C138.143 92.2167 137.976 91.5441 137.627 90.968C137.281 90.3936 136.794 89.9473 136.165 89.6289C135.537 89.3105 134.887 89.1809 134.216 89.2401C133.548 89.301 132.907 89.5644 132.293 90.0305C131.683 90.4982 131.15 91.1815 130.694 92.0803C130.239 92.9792 130.003 93.8131 129.988 94.5821C129.975 95.3528 130.142 96.0253 130.488 96.5997C130.837 97.1758 131.326 97.6231 131.954 97.9414C132.583 98.2598 133.231 98.3885 133.899 98.3277C134.57 98.2685 135.211 98.005 135.821 97.5373C136.435 97.0713 136.97 96.3888 137.425 95.49ZM151.616 96.1562L146.358 106.537L145.141 105.921L143.613 94.9048L143.512 94.8535L139.383 103.004L138.126 102.367L143.385 91.9866L144.601 92.6028L146.139 103.649L146.241 103.7L150.379 95.5297L151.616 96.1562Z" fill="#161614"/>
<path d="M49.1925 51.4453L149.982 102.5L149.489 103.473L48.6995 52.4185L49.1925 51.4453Z" fill="#161614"/>
<defs>
<clipPath id="clip0_2311_3343">
<rect width="183.78" height="78.63" fill="white" transform="translate(35.5596) rotate(26.8644)"/>
</clipPath>
<clipPath id="clip1_2311_3343">
<rect width="183.764" height="78.63" fill="white" transform="translate(35.5666 0.003479) rotate(26.8644)"/>
</clipPath>
</defs>
</svg>
