<svg width="209" height="135" viewBox="0 0 209 135" fill="none" xmlns="http://www.w3.org/2000/svg">
<mask id="mask0_2311_3088" style="mask-type:alpha" maskUnits="userSpaceOnUse" x="-20" y="0" width="229" height="135">
<g clip-path="url(#clip0_2311_3088)">
<g clip-path="url(#clip1_2311_3088)">
<path d="M17.301 129.715C7.48486 131.919 -2.20947 125.972 -4.35182 116.431L-15.8845 65.0709C-18.0269 55.5301 -11.8059 46.0091 -1.98981 43.8049C7.82631 41.6007 17.5206 47.548 19.663 57.0888L31.1957 108.449C33.3381 117.99 27.1171 127.511 17.301 129.715Z" fill="#37B669"/>
<path d="M51.85 121.957C42.0338 124.161 32.3395 118.214 30.1971 108.673L18.6644 57.3131C16.5221 47.7723 22.743 38.2513 32.5592 36.0471C42.3753 33.8429 52.0696 39.7902 54.212 49.331L65.7447 100.691C67.887 110.232 61.6661 119.753 51.85 121.957Z" fill="#37B669"/>
<path d="M86.3999 114.199C76.5838 116.403 66.8895 110.456 64.7471 100.915L53.2144 49.555C51.072 40.0142 57.293 30.4932 67.1091 28.289C76.9252 26.0848 86.6196 32.0322 88.7619 41.573L100.295 92.933C102.436 102.474 96.215 111.995 86.3999 114.199Z" fill="#37B669"/>
<path d="M120.949 106.441C111.133 108.645 101.438 102.698 99.2961 93.1572L87.7634 41.7971C85.621 32.2563 91.842 22.7353 101.658 20.5311C111.474 18.3269 121.169 24.2742 123.311 33.815L134.844 85.1751C136.986 94.7159 130.765 104.237 120.949 106.441Z" fill="#37B669"/>
<path d="M155.498 98.6833C145.682 100.887 135.987 94.9402 133.845 85.3994L122.312 34.0393C120.17 24.4985 126.391 14.9774 136.207 12.7733C146.023 10.5691 155.718 16.5164 157.86 26.0572L169.393 77.4173C171.535 86.9581 165.314 96.4791 155.498 98.6833Z" fill="#37B669"/>
<path d="M190.048 90.9253C180.232 93.1294 170.537 87.1821 168.395 77.6413L156.862 26.2812C154.72 16.7404 160.941 7.21939 170.757 5.01522C180.573 2.81104 190.267 8.75837 192.41 18.2992L203.943 69.6592C206.084 79.2003 199.863 88.7213 190.048 90.9253Z" fill="#37B669"/>
</g>
</g>
</mask>
<g mask="url(#mask0_2311_3088)">
<rect x="-19.7809" y="47.7998" width="213.72" height="88.95" transform="rotate(-12.6556 -19.7809 47.7998)" fill="#37B669"/>
</g>
<path d="M40.6666 72.3975L42.3075 72.0291L48.2822 80.5871L48.4153 80.5572L50.1575 70.2664L51.7985 69.8979L54.3479 81.2515L53.0618 81.5403L51.1248 72.9142L51.0139 72.9391L49.4029 82.3619L48.1611 82.6408L42.6761 74.8114L42.5652 74.8363L44.5022 83.4624L43.216 83.7512L40.6666 72.3975ZM57.5702 80.528L56.1289 80.8516L57.7483 68.5619L59.1676 68.2432L65.8859 78.6607L64.4445 78.9844L58.9056 70.1888L58.8169 70.2087L57.5702 80.528ZM57.1066 75.9735L62.9164 74.6689L63.1903 75.8885L57.3804 77.1931L57.1066 75.9735ZM67.6544 78.2636L65.1049 66.91L68.9412 66.0486C69.8282 65.8494 70.5903 65.8374 71.2276 66.0127C71.8639 66.1842 72.3778 66.5017 72.7691 66.9651C73.1605 67.4285 73.4312 67.9947 73.5815 68.6636C73.7317 69.3326 73.7281 69.9565 73.5708 70.5353C73.4135 71.1141 73.0853 71.6149 72.5862 72.0375C72.0863 72.4565 71.3966 72.7647 70.517 72.9622L67.4124 73.6593L67.1336 72.4175L70.1938 71.7304C70.7999 71.5943 71.2678 71.396 71.5976 71.1356C71.931 70.8744 72.1444 70.5625 72.2377 70.1999C72.3338 69.8328 72.3308 69.422 72.2288 68.9674C72.1267 68.5128 71.9525 68.1346 71.7061 67.8327C71.4598 67.5309 71.1292 67.3295 70.7144 67.2285C70.2988 67.1238 69.7843 67.1404 69.1707 67.2781L66.7537 67.8209L69.0292 77.9549L67.6544 78.2636ZM71.8533 71.9633L75.7926 76.4362L74.196 76.7947L70.3011 72.3119L71.8533 71.9633ZM77.6401 76.0214L75.0907 64.6677L76.4655 64.359L77.7303 69.9915L77.8633 69.9616L81.6988 63.1839L83.495 62.7805L79.8776 68.9736L86.0444 74.1342L84.3813 74.5077L79.2491 70.1163L78.1884 72.0316L79.0149 75.7127L77.6401 76.0214ZM87.824 73.7346L85.2746 62.381L92.1267 60.8423L92.4005 62.062L86.9233 63.2919L87.7847 67.1282L92.9072 65.9779L93.181 67.1976L88.0586 68.3478L88.925 72.2063L94.4909 70.9564L94.7648 72.1761L87.824 73.7346ZM94.2577 61.645L93.9838 60.4253L102.499 58.5133L102.773 59.7329L99.2028 60.5346L101.478 70.6686L100.103 70.9773L97.8279 60.8433L94.2577 61.645ZM105.996 57.7281L108.545 69.0817L107.17 69.3904L104.621 58.0368L105.996 57.7281ZM117.756 55.0875L120.305 66.4411L118.974 66.7399L110.786 59.2147L110.675 59.2396L112.677 68.154L111.302 68.4627L108.752 57.1091L110.083 56.8103L118.299 64.3527L118.41 64.3278L116.403 55.3912L117.756 55.0875ZM129.065 56.275C128.859 55.9291 128.623 55.6307 128.357 55.3798C128.094 55.1245 127.802 54.9221 127.481 54.7729C127.164 54.6228 126.821 54.5309 126.453 54.4972C126.084 54.4635 125.695 54.4927 125.284 54.5849C124.612 54.7359 124.039 55.047 123.566 55.518C123.094 55.9891 122.771 56.5993 122.597 57.3487C122.424 58.098 122.448 58.9643 122.668 59.9474C122.889 60.9305 123.24 61.7233 123.721 62.3257C124.201 62.9282 124.762 63.3401 125.402 63.5614C126.041 63.7826 126.712 63.8144 127.415 63.6567C128.065 63.5107 128.607 63.2434 129.04 62.8551C129.476 62.4621 129.775 61.9795 129.938 61.4073C130.103 60.8305 130.108 60.1947 129.952 59.4998L130.393 59.4939L126.978 60.2608L126.704 59.0411L131.028 58.0702L131.302 59.2898C131.512 60.2248 131.495 61.0827 131.251 61.8635C131.011 62.6434 130.584 63.3021 129.971 63.8397C129.361 64.3727 128.605 64.7404 127.703 64.9429C126.698 65.1686 125.762 65.1304 124.894 64.8283C124.03 64.5254 123.288 63.9855 122.667 63.2087C122.05 62.4311 121.607 61.4436 121.338 60.2461C121.136 59.348 121.075 58.5135 121.154 57.7426C121.236 56.9671 121.442 56.2764 121.772 55.6705C122.102 55.0646 122.54 54.5587 123.085 54.1528C123.631 53.7469 124.267 53.4622 124.996 53.2987C125.594 53.1643 126.173 53.1295 126.731 53.1944C127.292 53.2548 127.812 53.4038 128.293 53.6415C128.776 53.8746 129.205 54.1877 129.581 54.5809C129.956 54.9704 130.257 55.4288 130.484 55.9563L129.065 56.275Z" fill="white"/>
<path d="M40.6934 78.9485L132.131 58.4165L132.37 59.4809L40.9324 80.0129L40.6934 78.9485Z" fill="white"/>
<defs>
<clipPath id="clip0_2311_3088">
<rect width="213.72" height="88.95" fill="white" transform="translate(-19.7809 47.7998) rotate(-12.6556)"/>
</clipPath>
<clipPath id="clip1_2311_3088">
<rect width="213.684" height="88.95" fill="white" transform="translate(-19.7636 47.7959) rotate(-12.6556)"/>
</clipPath>
</defs>
</svg>
