<svg width="34" height="34" viewBox="0 0 34 34" fill="none" xmlns="http://www.w3.org/2000/svg">
<path d="M17 11.3333L12.1833 8.5V2.83333L17 0L21.8167 2.83333V8.5L17 11.3333Z" fill="white"/>
<path d="M26.6333 17L21.8167 14.1667V8.5L26.6333 5.66667L31.45 8.5V14.1667L26.6333 17Z" fill="white"/>
<path d="M21.8167 25.5V19.8333L26.6333 17L31.45 19.8333V25.5L26.6333 28.3333L21.8167 25.5Z" fill="white"/>
<path d="M12.1833 25.5L17 22.6667L21.8167 25.5V31.1667L17 34L12.1833 31.1667V25.5Z" fill="white"/>
<path d="M7.36667 17L12.1833 19.8333V25.5L7.36667 28.3333L2.55 25.5V19.8333L7.36667 17Z" fill="white"/>
<path d="M7.36667 17L12.1833 14.1667V8.5L7.36667 5.66667L2.55 8.5V14.1667L7.36667 17Z" fill="white"/>
</svg>
